# Blender v2.78 (sub 4) OBJ File: ''
# www.blender.org
mtllib note1.mtl
o White_Sphere
v 0.061404 0.130298 0.028748
v 0.065127 0.141034 0.000000
v 0.007976 0.148826 0.020328
v -0.047921 0.133961 0.037561
v -0.094053 0.098702 0.049076
v -0.123397 0.048416 0.053119
v -0.131485 -0.009241 0.049076
v -0.117087 -0.065491 0.037561
v -0.082394 -0.111770 0.020328
v -0.014155 0.156501 0.000000
v -0.088814 0.148142 -0.000000
v -0.147482 0.117230 -0.000000
v -0.181227 0.068470 -0.000000
v -0.184914 0.009287 -0.000000
v -0.157979 -0.051310 -0.000000
v -0.104525 -0.104096 -0.000000
v 0.007976 0.148826 -0.020328
v -0.047921 0.133961 -0.037561
v -0.094053 0.098702 -0.049076
v -0.123396 0.048416 -0.053119
v -0.131485 -0.009241 -0.049076
v -0.117087 -0.065491 -0.037561
v -0.082394 -0.111770 -0.020328
v 0.061404 0.130298 -0.028748
v 0.050802 0.099726 -0.053119
v 0.034936 0.053971 -0.069404
v 0.016220 -0.000000 -0.075122
v -0.002496 -0.053971 -0.069404
v -0.018363 -0.099726 -0.053119
v -0.028965 -0.130298 -0.028748
v 0.114833 0.111770 -0.020328
v 0.149526 0.065491 -0.037561
v 0.163924 0.009241 -0.049076
v 0.155836 -0.048416 -0.053119
v 0.126492 -0.098702 -0.049076
v 0.080360 -0.133961 -0.037561
v 0.024464 -0.148826 -0.020328
v -0.032688 -0.141034 0.000000
v 0.136964 0.104096 0.000000
v 0.190419 0.051310 0.000000
v 0.217353 -0.009287 0.000000
v 0.213667 -0.068471 0.000000
v 0.179921 -0.117230 0.000000
v 0.121253 -0.148142 0.000000
v 0.046595 -0.156501 0.000000
v 0.114833 0.111770 0.020328
v 0.149526 0.065491 0.037561
v 0.163924 0.009241 0.049076
v 0.155836 -0.048416 0.053119
v 0.126492 -0.098702 0.049076
v 0.080360 -0.133961 0.037561
v 0.024464 -0.148826 0.020328
v 0.050802 0.099726 0.053119
v 0.034936 0.053971 0.069404
v 0.016220 -0.000000 0.075122
v -0.002496 -0.053971 0.069404
v -0.018363 -0.099726 0.053119
v -0.028965 -0.130298 0.028748
vt 0.000000 0.000000
vt 1.000000 0.000000
vt 1.000000 1.000000
vt 1.000000 0.000000
vt 0.000000 1.000000
vt 0.000000 0.000000
vt 0.000000 0.000000
vt 1.000000 1.000000
vt 0.000000 1.000000
vt 0.000000 0.000000
vt 1.000000 1.000000
vt 0.000000 1.000000
vt 1.000000 0.000000
vt 0.000000 1.000000
vt 0.000000 0.000000
vt 1.000000 0.000000
vt 0.000000 1.000000
vt 0.000000 0.000000
vt 0.000000 0.000000
vt 1.000000 1.000000
vt 0.000000 1.000000
vt 0.000000 0.000000
vt 1.000000 0.000000
vt 0.000000 0.000000
vt 1.000000 1.000000
vt 0.000000 1.000000
vt 1.000000 0.000000
vt 0.000000 1.000000
vt 0.000000 0.000000
vt 1.000000 0.000000
vt 0.000000 1.000000
vt 0.000000 0.000000
vt 0.000000 0.000000
vt 1.000000 1.000000
vt 0.000000 1.000000
vt 0.000000 0.000000
vt 1.000000 0.000000
vt 1.000000 1.000000
vt 1.000000 0.000000
vt 0.000000 1.000000
vt 0.000000 0.000000
vt 0.000000 0.000000
vt 1.000000 1.000000
vt 0.000000 1.000000
vt 0.000000 0.000000
vt 1.000000 1.000000
vt 0.000000 1.000000
vt 0.000000 0.000000
vt 1.000000 1.000000
vt 0.000000 1.000000
vt 1.000000 0.000000
vt 0.000000 1.000000
vt 0.000000 0.000000
vt 0.000000 0.000000
vt 1.000000 1.000000
vt 1.000000 0.000000
vt 1.000000 1.000000
vt 0.000000 0.000000
vt 1.000000 1.000000
vt 0.000000 1.000000
vt 1.000000 0.000000
vt 0.000000 1.000000
vt 0.000000 0.000000
vt 1.000000 0.000000
vt 0.000000 1.000000
vt 0.000000 0.000000
vt 0.000000 0.000000
vt 1.000000 1.000000
vt 1.000000 0.000000
vt 1.000000 1.000000
vt 0.000000 0.000000
vt 1.000000 1.000000
vt 0.000000 1.000000
vt 1.000000 0.000000
vt 0.000000 1.000000
vt 0.000000 0.000000
vt 1.000000 0.000000
vt 0.000000 1.000000
vt 0.000000 0.000000
vt 0.000000 0.000000
vt 1.000000 1.000000
vt 0.000000 1.000000
vt 0.000000 0.000000
vt 1.000000 1.000000
vt 0.000000 1.000000
vt 1.000000 0.000000
vt 0.000000 1.000000
vt 0.000000 0.000000
vt 1.000000 0.000000
vt 0.000000 1.000000
vt 0.000000 0.000000
vt 0.000000 0.000000
vt 1.000000 1.000000
vt 0.000000 1.000000
vt 0.000000 0.000000
vt 1.000000 1.000000
vt 0.000000 1.000000
vt 1.000000 0.000000
vt 0.000000 1.000000
vt 0.000000 0.000000
vt 1.000000 0.000000
vt 0.000000 1.000000
vt 0.000000 0.000000
vt 0.000000 0.000000
vt 1.000000 1.000000
vt 0.000000 1.000000
vt 0.000000 0.000000
vt 1.000000 0.000000
vt 1.000000 1.000000
vt 1.000000 0.000000
vt 0.000000 1.000000
vt 0.000000 0.000000
vt 1.000000 0.000000
vt 0.000000 1.000000
vt 0.000000 0.000000
vt 0.000000 0.000000
vt 1.000000 1.000000
vt 0.000000 1.000000
vt 0.000000 0.000000
vt 1.000000 1.000000
vt 1.000000 0.000000
vt 1.000000 1.000000
vt 1.000000 0.000000
vt 0.000000 1.000000
vt 0.000000 0.000000
vt 0.000000 0.000000
vt 1.000000 1.000000
vt 0.000000 1.000000
vt 0.000000 0.000000
vt 0.000000 1.000000
vt 0.000000 0.000000
vt 1.000000 1.000000
vt 0.000000 1.000000
vt 1.000000 0.000000
vt 0.000000 1.000000
vt 0.000000 0.000000
vt 0.000000 0.000000
vt 1.000000 1.000000
vt 1.000000 0.000000
vt 1.000000 1.000000
vt 0.000000 0.000000
vt 1.000000 1.000000
vt 0.000000 1.000000
vt 1.000000 0.000000
vt 0.000000 1.000000
vt 0.000000 0.000000
vt 1.000000 0.000000
vt 0.000000 1.000000
vt 0.000000 0.000000
vt 0.000000 0.000000
vt 1.000000 1.000000
vt 0.000000 1.000000
vt 1.000000 0.000000
vt 1.000000 1.000000
vt 0.000000 0.000000
vt 1.000000 1.000000
vt 0.000000 1.000000
vt 1.000000 0.000000
vt 0.000000 1.000000
vt 0.000000 0.000000
vt 1.000000 0.000000
vt 0.000000 1.000000
vt 0.000000 0.000000
vt 0.000000 0.000000
vt 1.000000 1.000000
vt 0.000000 1.000000
vt 0.000000 0.000000
vt 1.000000 1.000000
vt 0.000000 1.000000
vt 1.000000 0.000000
vt 0.000000 1.000000
vt 0.000000 0.000000
vt 0.000000 0.000000
vt 1.000000 1.000000
vt 1.000000 1.000000
vt 1.000000 0.000000
vt 1.000000 0.000000
vt 1.000000 1.000000
vt 1.000000 1.000000
vt 1.000000 0.000000
vt 1.000000 0.000000
vt 1.000000 1.000000
vt 1.000000 1.000000
vt 1.000000 0.000000
vt 1.000000 1.000000
vt 1.000000 0.000000
vt 1.000000 0.000000
vt 1.000000 0.000000
vt 1.000000 1.000000
vt 1.000000 0.000000
vt 1.000000 1.000000
vt 1.000000 0.000000
vt 1.000000 1.000000
vt 1.000000 0.000000
vt 1.000000 0.000000
vt 1.000000 1.000000
vt 1.000000 1.000000
vt 1.000000 0.000000
vt 1.000000 0.000000
vt 1.000000 1.000000
vt 1.000000 1.000000
vt 1.000000 0.000000
vt 1.000000 1.000000
vt 1.000000 1.000000
vt 1.000000 0.000000
vt 1.000000 1.000000
vt 1.000000 0.000000
vt 1.000000 0.000000
vt 1.000000 0.000000
vt 1.000000 1.000000
vt 1.000000 0.000000
vt 1.000000 1.000000
vt 1.000000 0.000000
vt 1.000000 0.000000
vt 1.000000 1.000000
vt 1.000000 0.000000
vt 1.000000 0.000000
vt 1.000000 1.000000
vn -0.3559 -0.8594 0.3670
vn -0.2354 -0.2524 0.9385
vn -0.1062 0.1411 0.9843
vn 0.0841 0.6031 0.7932
vn -0.3073 -0.5257 0.7932
vn -0.1707 -0.0451 0.9843
vn -0.0286 0.3440 0.9385
vn 0.2526 0.8953 0.3670
vn -0.0997 0.8902 0.4446
vn -0.6294 -0.6374 0.4446
vn -0.6680 0.0416 0.7430
vn -0.3567 0.6769 0.6439
vn 0.1890 0.9689 0.1600
vn -0.4514 -0.8779 0.1600
vn -0.6992 -0.3108 0.6439
vn -0.5504 0.3809 0.7430
vn -0.6294 -0.6374 -0.4446
vn -0.6680 0.0416 -0.7430
vn -0.3567 0.6769 -0.6439
vn 0.1890 0.9689 -0.1600
vn -0.4514 -0.8779 -0.1600
vn -0.6992 -0.3108 -0.6439
vn -0.5504 0.3809 -0.7430
vn -0.0997 0.8902 -0.4446
vn 0.2526 0.8953 -0.3670
vn -0.3559 -0.8594 -0.3670
vn -0.2354 -0.2524 -0.9385
vn -0.1062 0.1411 -0.9843
vn 0.0842 0.6031 -0.7932
vn -0.3073 -0.5257 -0.7932
vn -0.1707 -0.0451 -0.9843
vn -0.0286 0.3440 -0.9385
vn 0.0286 -0.3440 -0.9385
vn 0.1707 0.0451 -0.9843
vn 0.3073 0.5257 -0.7932
vn -0.0842 -0.6031 -0.7932
vn 0.1062 -0.1411 -0.9843
vn 0.2354 0.2524 -0.9385
vn 0.3559 0.8594 -0.3670
vn -0.2526 -0.8953 -0.3670
vn 0.0997 -0.8902 -0.4446
vn 0.5504 -0.3809 -0.7430
vn 0.6992 0.3108 -0.6439
vn 0.4514 0.8779 -0.1600
vn -0.1890 -0.9689 -0.1600
vn 0.3567 -0.6769 -0.6439
vn 0.6680 -0.0416 -0.7430
vn 0.6294 0.6374 -0.4446
vn 0.5504 -0.3809 0.7430
vn 0.6992 0.3108 0.6439
vn 0.4514 0.8779 0.1600
vn -0.1890 -0.9689 0.1600
vn 0.3567 -0.6769 0.6439
vn 0.6680 -0.0416 0.7430
vn 0.6294 0.6374 0.4446
vn 0.0997 -0.8902 0.4446
vn -0.2526 -0.8953 0.3670
vn 0.0286 -0.3440 0.9385
vn 0.1707 0.0451 0.9843
vn 0.3073 0.5257 0.7932
vn -0.0841 -0.6031 0.7932
vn 0.1062 -0.1411 0.9843
vn 0.2354 0.2524 0.9385
vn 0.3559 0.8594 0.3670
vn -0.0841 -0.6031 -0.7932
vn -0.0842 -0.6031 0.7932
usemtl Material
s off
f 38/1/1 58/2/1 9/3/1
f 56/4/2 8/5/2 57/6/2
f 55/7/3 5/8/3 6/9/3
f 53/10/4 3/11/4 4/12/4
f 57/13/5 9/14/5 58/15/5
f 55/16/6 7/17/6 56/18/6
f 54/19/7 4/20/7 5/21/7
f 1/22/8 2/23/8 3/11/8
f 4/24/9 10/25/9 11/26/9
f 8/27/10 16/28/10 9/29/10
f 6/30/11 14/31/11 7/32/11
f 5/33/12 11/34/12 12/35/12
f 3/36/13 2/23/13 10/25/13
f 38/1/14 9/37/14 16/38/14
f 7/39/15 15/40/15 8/41/15
f 6/42/16 12/43/16 13/44/16
f 16/45/17 22/46/17 23/47/17
f 14/48/18 20/49/18 21/50/18
f 11/51/19 19/52/19 12/53/19
f 10/54/20 2/23/20 17/55/20
f 38/1/21 16/56/21 23/57/21
f 15/58/22 21/59/22 22/60/22
f 12/61/23 20/62/23 13/63/23
f 10/64/24 18/65/24 11/66/24
f 17/67/25 2/23/25 24/68/25
f 38/1/26 23/69/26 30/70/26
f 22/71/27 28/72/27 29/73/27
f 19/74/28 27/75/28 20/76/28
f 17/77/29 25/78/29 18/79/29
f 23/80/30 29/81/30 30/82/30
f 21/83/31 27/84/31 28/85/31
f 18/86/32 26/87/32 19/88/32
f 28/89/33 36/90/33 29/91/33
f 27/92/34 33/93/34 34/94/34
f 25/95/35 31/96/35 32/97/35
f 29/98/36 37/99/36 30/100/36
f 27/101/37 35/102/37 28/103/37
f 26/104/38 32/105/38 33/106/38
f 24/107/39 2/23/39 31/96/39
f 38/1/40 30/108/40 37/109/40
f 36/110/41 45/111/41 37/112/41
f 34/113/42 43/114/42 35/115/42
f 33/116/43 40/117/43 41/118/43
f 31/119/44 2/23/44 39/120/44
f 38/1/45 37/121/45 45/122/45
f 35/123/46 44/124/46 36/125/46
f 34/126/47 41/127/47 42/128/47
f 32/129/48 39/120/48 40/130/48
f 43/131/49 49/132/49 50/133/49
f 40/134/50 48/135/50 41/136/50
f 39/137/51 2/23/51 46/138/51
f 38/1/52 45/139/52 52/140/52
f 44/141/53 50/142/53 51/143/53
f 41/144/54 49/145/54 42/146/54
f 39/147/55 47/148/55 40/149/55
f 45/150/56 51/151/56 52/152/56
f 38/1/57 52/153/57 58/154/57
f 51/155/58 56/156/58 57/157/58
f 48/158/59 55/159/59 49/160/59
f 46/161/60 53/162/60 47/163/60
f 52/164/61 57/165/61 58/166/61
f 50/167/62 55/168/62 56/169/62
f 47/170/63 54/171/63 48/172/63
f 46/173/64 2/23/64 1/174/64
f 56/4/2 7/175/2 8/5/2
f 55/7/3 54/176/3 5/8/3
f 53/10/4 1/177/4 3/11/4
f 57/13/5 8/178/5 9/14/5
f 55/16/6 6/179/6 7/17/6
f 54/19/7 53/180/7 4/20/7
f 4/24/9 3/181/9 10/25/9
f 8/27/10 15/182/10 16/28/10
f 6/30/11 13/183/11 14/31/11
f 5/33/12 4/184/12 11/34/12
f 7/39/15 14/185/15 15/40/15
f 6/42/16 5/186/16 12/43/16
f 16/45/17 15/187/17 22/46/17
f 14/48/18 13/188/18 20/49/18
f 11/51/19 18/189/19 19/52/19
f 15/58/22 14/190/22 21/59/22
f 12/61/23 19/191/23 20/62/23
f 10/64/24 17/55/24 18/65/24
f 22/71/27 21/192/27 28/72/27
f 19/74/28 26/193/28 27/75/28
f 17/77/29 24/68/29 25/78/29
f 23/80/30 22/194/30 29/81/30
f 21/83/31 20/195/31 27/84/31
f 18/86/32 25/196/32 26/87/32
f 28/89/33 35/197/33 36/90/33
f 27/92/34 26/198/34 33/93/34
f 25/95/35 24/199/35 31/96/35
f 29/98/65 36/200/65 37/99/65
f 27/101/37 34/201/37 35/102/37
f 26/104/38 25/202/38 32/105/38
f 36/110/41 44/203/41 45/111/41
f 34/113/42 42/204/42 43/114/42
f 33/116/43 32/205/43 40/117/43
f 35/123/46 43/206/46 44/124/46
f 34/126/47 33/207/47 41/127/47
f 32/129/48 31/208/48 39/120/48
f 43/131/49 42/209/49 49/132/49
f 40/134/50 47/210/50 48/135/50
f 44/141/53 43/211/53 50/142/53
f 41/144/54 48/212/54 49/145/54
f 39/147/55 46/138/55 47/148/55
f 45/150/56 44/213/56 51/151/56
f 51/155/58 50/214/58 56/156/58
f 48/158/59 54/215/59 55/159/59
f 46/161/60 1/174/60 53/162/60
f 52/164/66 51/216/66 57/165/66
f 50/167/62 49/217/62 55/168/62
f 47/170/63 53/218/63 54/171/63
o Colored_Staff
v -0.111220 0.025515 0.036631
v -0.111220 1.025515 0.036631
v -0.137122 0.025515 0.025902
v -0.137122 1.025515 0.025902
v -0.147851 0.025515 -0.000000
v -0.147851 1.025515 -0.000000
v -0.137122 0.025515 -0.025902
v -0.137122 1.025515 -0.025902
v -0.111220 0.025515 -0.036631
v -0.111220 1.025515 -0.036631
v -0.085318 0.025515 -0.025902
v -0.085318 1.025515 -0.025902
v -0.074589 0.025515 -0.000000
v -0.074589 1.025515 -0.000000
v -0.085318 0.025515 0.025902
v -0.085318 1.025515 0.025902
v -0.111220 0.745873 0.036631
v -0.137122 0.745873 0.025902
v -0.147851 0.745873 -0.000000
v -0.137122 0.745873 -0.025902
v -0.111220 0.745873 -0.036631
v -0.085318 0.745873 -0.025902
v -0.074589 0.745873 -0.000000
v -0.085318 0.745873 0.025902
v -0.164612 1.025515 -0.000000
v -0.153883 1.025515 0.025902
v -0.153883 1.025515 -0.025902
v -0.153883 0.745873 0.025902
v -0.153985 0.740258 -0.000000
v -0.153883 0.745873 -0.025902
v -0.342688 0.139247 0.000000
v -0.338786 0.139182 0.025902
v -0.338786 0.139182 -0.025902
v -0.312961 0.138670 0.025902
v -0.309538 0.138587 -0.000000
v -0.312961 0.138670 -0.025902
v -0.483104 0.574969 0.025902
v -0.397010 0.572014 0.025902
v -0.489832 0.575642 -0.000000
v -0.390138 0.570187 -0.000000
v -0.397010 0.572014 -0.025902
v -0.483104 0.574969 -0.025902
v -0.329414 0.712116 0.025902
v -0.329414 0.712116 -0.025902
v -0.379139 0.818186 0.025902
v -0.384153 0.823849 -0.000000
v -0.324145 0.706111 -0.000000
v -0.379139 0.818186 -0.025902
v -0.461053 0.349932 0.025902
v -0.466937 0.347937 -0.000000
v -0.387196 0.346864 -0.000000
v -0.461053 0.349932 -0.025902
v -0.392583 0.344534 0.025902
v -0.392583 0.344534 -0.025902
v -0.230908 0.747023 0.025902
v -0.230908 0.747023 -0.025902
v -0.256414 0.905890 0.025902
v -0.259620 0.914701 -0.000000
v -0.230000 0.739520 -0.000000
v -0.256414 0.905890 -0.025902
vt 1.000000 0.000000
vt 0.000000 1.000000
vt 0.000000 0.000000
vt 1.000000 0.000000
vt 0.000000 1.000000
vt 0.000000 0.000000
vt 0.000000 0.000000
vt 1.000000 1.000000
vt 0.000000 1.000000
vt 1.000000 0.000000
vt 0.000000 1.000000
vt 0.000000 0.000000
vt 0.000000 0.000000
vt 1.000000 1.000000
vt 0.000000 1.000000
vt 1.000000 0.000000
vt 0.000000 1.000000
vt 0.000000 0.000000
vt 0.853553 0.146447
vt 0.146447 0.146447
vt 0.146447 0.853553
vt 0.000000 0.000000
vt 1.000000 1.000000
vt 0.000000 1.000000
vt 1.000000 0.000000
vt 0.000000 1.000000
vt 0.000000 0.000000
vt 0.000000 0.000000
vt 1.000000 1.000000
vt 0.000000 1.000000
vt 1.000000 0.000000
vt 0.000000 1.000000
vt 0.000000 0.000000
vt 1.000000 0.000000
vt 0.000000 1.000000
vt 0.000000 0.000000
vt 1.000000 0.000000
vt 0.000000 1.000000
vt 0.000000 0.000000
vt 0.000000 0.000000
vt 1.000000 1.000000
vt 0.000000 1.000000
vt 1.000000 0.000000
vt 0.000000 1.000000
vt 0.000000 0.000000
vt 1.000000 0.000000
vt 0.000000 1.000000
vt 0.000000 0.000000
vt 0.000000 0.000000
vt 1.000000 1.000000
vt 0.000000 1.000000
vt 0.000000 0.000000
vt 1.000000 1.000000
vt 0.000000 1.000000
vt 0.000000 0.000000
vt 1.000000 1.000000
vt 0.000000 1.000000
vt 1.000000 0.000000
vt 0.000000 1.000000
vt 0.000000 0.000000
vt 0.000000 0.000000
vt 1.000000 1.000000
vt 0.000000 1.000000
vt 0.000000 0.000000
vt 1.000000 1.000000
vt 0.000000 1.000000
vt 0.000000 1.000000
vt 0.000000 0.000000
vt 1.000000 0.000000
vt 1.000000 1.000000
vt 0.000000 0.000000
vt 1.000000 0.000000
vt 1.000000 1.000000
vt 1.000000 0.000000
vt 0.000000 1.000000
vt 0.000000 0.000000
vt 1.000000 0.000000
vt 0.000000 1.000000
vt 0.000000 0.000000
vt 0.000000 0.000000
vt 0.000000 1.000000
vt 1.000000 0.000000
vt 0.000000 1.000000
vt 0.000000 0.000000
vt 1.000000 0.000000
vt 1.000000 1.000000
vt 1.000000 1.000000
vt 1.000000 0.000000
vt 0.000000 1.000000
vt 0.000000 0.000000
vt 0.000000 0.000000
vt 1.000000 1.000000
vt 0.000000 1.000000
vt 1.000000 0.000000
vt 0.000000 1.000000
vt 0.000000 0.000000
vt 1.000000 0.000000
vt 0.000000 1.000000
vt 0.000000 0.000000
vt 0.000000 0.000000
vt 1.000000 1.000000
vt 0.000000 1.000000
vt 0.000000 0.000000
vt 1.000000 1.000000
vt 0.000000 1.000000
vt 0.000000 0.000000
vt 1.000000 1.000000
vt 0.000000 1.000000
vt 0.000000 0.000000
vt 1.000000 1.000000
vt 0.000000 1.000000
vt 0.000000 0.000000
vt 1.000000 1.000000
vt 0.000000 1.000000
vt 1.000000 0.000000
vt 0.000000 1.000000
vt 0.000000 0.000000
vt 1.000000 0.000000
vt 0.000000 1.000000
vt 0.000000 0.000000
vt 1.000000 0.000000
vt 0.000000 1.000000
vt 0.000000 0.000000
vt 1.000000 0.000000
vt 0.000000 1.000000
vt 0.000000 0.000000
vt 1.000000 0.000000
vt 0.000000 1.000000
vt 0.000000 0.000000
vt 0.000000 0.000000
vt 1.000000 1.000000
vt 0.000000 1.000000
vt 0.000000 0.000000
vt 1.000000 1.000000
vt 0.000000 1.000000
vt 0.000000 0.000000
vt 1.000000 1.000000
vt 0.000000 1.000000
vt 1.000000 0.000000
vt 0.000000 1.000000
vt 0.000000 0.000000
vt 1.000000 0.000000
vt 0.000000 1.000000
vt 0.000000 0.000000
vt 1.000000 0.000000
vt 0.000000 1.000000
vt 0.000000 0.000000
vt 0.000000 0.000000
vt 1.000000 1.000000
vt 0.000000 1.000000
vt 0.000000 0.000000
vt 1.000000 1.000000
vt 0.000000 1.000000
vt 0.000000 0.000000
vt 1.000000 1.000000
vt 0.000000 1.000000
vt 1.000000 0.000000
vt 0.000000 1.000000
vt 0.000000 0.000000
vt 1.000000 1.000000
vt 1.000000 1.000000
vt 1.000000 1.000000
vt 1.000000 0.000000
vt 1.000000 1.000000
vt 0.500000 1.000000
vt 0.853553 0.853553
vt 1.000000 0.500000
vt 0.500000 0.000000
vt 0.000000 0.500000
vt 1.000000 0.000000
vt 1.000000 1.000000
vt 1.000000 0.000000
vt 1.000000 1.000000
vt 1.000000 1.000000
vt 1.000000 1.000000
vt 1.000000 1.000000
vt 1.000000 1.000000
vt 1.000000 0.000000
vt 1.000000 0.000000
vt 1.000000 0.000000
vt 1.000000 1.000000
vt 1.000000 0.000000
vt 1.000000 1.000000
vt 1.000000 0.000000
vt 1.000000 1.000000
vt 1.000000 0.000000
vt 1.000000 1.000000
vt 1.000000 1.000000
vt 1.000000 0.000000
vt 1.000000 0.000000
vt 1.000000 0.000000
vt 1.000000 0.000000
vt 1.000000 0.000000
vt 1.000000 1.000000
vt 1.000000 1.000000
vt 1.000000 1.000000
vt 1.000000 1.000000
vt 1.000000 1.000000
vt 1.000000 0.000000
vt 1.000000 0.000000
vt 1.000000 0.000000
vt 1.000000 1.000000
vt 1.000000 1.000000
vt 1.000000 1.000000
vt 1.000000 0.000000
vt 1.000000 0.000000
vt 1.000000 0.000000
vt 1.000000 1.000000
vn -0.3827 -0.0000 0.9239
vn -0.0000 1.0000 0.0000
vn 0.6670 -0.7287 0.1553
vn -0.3827 0.0000 -0.9239
vn 0.3827 -0.0000 -0.9239
vn 0.9239 0.0000 -0.3827
vn 0.9239 -0.0000 0.3827
vn 0.3827 0.0000 0.9239
vn -0.9239 0.0000 -0.3827
vn -0.9239 -0.0000 0.3827
vn -0.8579 -0.4977 0.1280
vn 0.0000 0.0000 1.0000
vn 0.0000 0.0000 -1.0000
vn 0.0000 -1.0000 0.0000
vn -0.0198 -0.9998 0.0006
vn -0.0198 -0.9998 -0.0006
vn 0.9096 0.3518 -0.2209
vn -0.8365 -0.4980 -0.2284
vn 0.9300 0.3468 0.1218
vn -0.0199 -0.9998 0.0005
vn -0.0199 -0.9998 -0.0005
vn 0.8686 -0.4217 0.2602
vn -0.8896 0.3788 -0.2550
vn 0.8664 -0.4180 -0.2731
vn -0.8923 0.3814 0.2417
vn -0.5584 0.7813 0.2789
vn 0.3211 -0.9061 -0.2754
vn -0.5567 0.7630 -0.3285
vn 0.3217 -0.9064 0.2738
vn 0.9667 0.0127 0.2556
vn -0.9689 -0.0974 -0.2276
vn 0.9785 0.0190 -0.2052
vn -0.9641 -0.0945 0.2480
vn 0.0095 -0.9773 0.2118
vn -0.7240 0.6208 -0.3008
vn -0.0143 -0.9605 -0.2778
vn -0.7243 0.6208 0.3000
vn -0.8365 -0.4980 0.2284
vn 0.6670 -0.7287 -0.1553
vn 0.9300 0.3468 -0.1218
vn -0.8579 -0.4977 -0.1280
vn 0.9096 0.3518 0.2209
vn 0.8664 -0.4180 0.2731
vn -0.8923 0.3814 -0.2417
vn 0.8686 -0.4217 -0.2602
vn -0.8896 0.3788 0.2550
vn -0.5567 0.7630 0.3285
vn 0.3217 -0.9064 -0.2738
vn -0.5584 0.7813 -0.2789
vn 0.3211 -0.9061 0.2754
vn 0.9785 0.0190 0.2052
vn -0.9641 -0.0945 -0.2480
vn 0.9667 0.0127 -0.2556
vn -0.9689 -0.0974 0.2276
vn -0.0143 -0.9605 0.2778
vn -0.7243 0.6208 -0.3000
vn 0.0095 -0.9773 -0.2118
vn -0.7240 0.6208 0.3008
usemtl Material
s off
f 60/219/67 76/220/67 75/221/67
f 64/222/68 84/223/68 62/224/68
f 77/225/69 86/226/69 87/227/69
f 66/228/70 79/229/70 78/230/70
f 79/231/71 70/232/71 80/233/71
f 70/234/72 81/235/72 80/236/72
f 72/237/68 68/238/68 64/239/68
f 81/240/73 74/241/73 82/242/73
f 74/243/74 75/244/74 82/245/74
f 73/246/74 75/247/74 59/248/74
f 81/249/73 73/250/73 71/251/73
f 80/252/72 71/253/72 69/254/72
f 79/255/71 69/256/71 67/257/71
f 65/258/70 79/259/70 67/260/70
f 77/261/75 65/262/75 63/263/75
f 76/264/76 63/265/76 61/266/76
f 59/267/67 76/268/67 61/269/67
f 107/270/77 89/271/77 90/272/77
f 111/273/78 90/274/78 92/275/78
f 78/276/79 85/277/79 66/278/79
f 76/279/78 84/280/78 86/281/78
f 64/282/68 85/283/68 83/284/68
f 77/261/80 88/285/80 78/230/80
f 90/286/81 93/287/81 92/288/81
f 93/289/82 91/290/82 94/291/82
f 109/292/83 94/293/83 112/294/83
f 110/295/84 89/296/84 108/297/84
f 109/298/85 92/288/85 93/299/85
f 112/300/79 91/301/79 110/302/79
f 90/286/86 89/303/86 93/304/86
f 93/289/87 89/303/87 91/305/87
f 102/306/79 100/307/79 106/308/79
f 105/309/88 96/310/88 98/311/88
f 106/312/89 97/313/89 104/314/89
f 105/315/90 99/316/90 102/317/90
f 101/318/78 95/319/78 96/320/78
f 103/321/91 97/322/91 95/323/91
f 115/324/92 104/325/92 103/326/92
f 113/327/78 103/328/78 101/329/78
f 114/330/93 105/331/93 102/332/93
f 118/333/94 104/334/94 116/335/94
f 113/336/95 105/337/95 117/338/95
f 114/339/79 106/340/79 118/341/79
f 99/342/79 110/343/79 100/344/79
f 96/345/96 109/346/96 98/347/96
f 97/348/97 110/349/97 108/350/97
f 99/351/98 109/352/98 112/353/98
f 96/354/78 107/355/78 111/356/78
f 97/357/99 107/358/99 95/359/99
f 88/360/79 118/361/79 85/362/79
f 86/363/100 117/364/100 87/365/100
f 83/366/101 118/367/101 116/368/101
f 88/369/102 117/370/102 114/371/102
f 86/372/78 115/373/78 113/374/78
f 83/375/103 115/376/103 84/377/103
f 60/219/67 62/378/67 76/220/67
f 64/222/68 83/379/68 84/223/68
f 77/225/80 76/264/80 86/226/80
f 66/228/70 68/380/70 79/229/70
f 79/231/71 68/381/71 70/232/71
f 70/234/72 72/382/72 81/235/72
f 64/239/68 62/383/68 60/384/68
f 60/384/68 74/385/68 72/237/68
f 72/237/68 70/386/68 68/238/68
f 68/238/68 66/387/68 64/239/68
f 64/239/68 60/384/68 72/237/68
f 81/240/73 72/388/73 74/241/73
f 74/243/74 60/389/74 75/244/74
f 73/246/74 82/390/74 75/247/74
f 81/249/73 82/391/73 73/250/73
f 80/252/72 81/392/72 71/253/72
f 79/255/71 80/393/71 69/256/71
f 65/258/70 78/276/70 79/259/70
f 77/261/75 78/394/75 65/262/75
f 76/264/76 77/395/76 63/265/76
f 59/267/67 75/396/67 76/268/67
f 107/270/104 108/397/104 89/271/104
f 111/273/78 107/398/78 90/274/78
f 78/276/79 88/399/79 85/277/79
f 76/279/78 62/400/78 84/280/78
f 64/282/68 66/228/68 85/283/68
f 77/261/105 87/401/105 88/285/105
f 109/292/106 93/304/106 94/293/106
f 110/295/107 91/305/107 89/296/107
f 109/298/108 111/402/108 92/288/108
f 112/300/79 94/291/79 91/301/79
f 102/306/79 99/403/79 100/307/79
f 105/309/109 101/404/109 96/310/109
f 106/312/110 100/405/110 97/313/110
f 105/315/111 98/406/111 99/316/111
f 101/318/78 103/407/78 95/319/78
f 103/321/112 104/408/112 97/322/112
f 115/324/113 116/409/113 104/325/113
f 113/327/78 115/410/78 103/328/78
f 114/330/114 117/411/114 105/331/114
f 118/333/115 106/412/115 104/334/115
f 113/336/116 101/413/116 105/337/116
f 114/339/79 102/414/79 106/340/79
f 99/342/79 112/415/79 110/343/79
f 96/345/117 111/416/117 109/346/117
f 97/348/118 100/417/118 110/349/118
f 99/351/119 98/418/119 109/352/119
f 96/354/78 95/419/78 107/355/78
f 97/357/120 108/420/120 107/358/120
f 88/360/79 114/421/79 118/361/79
f 86/363/121 113/422/121 117/364/121
f 83/366/122 85/423/122 118/367/122
f 88/369/123 87/424/123 117/370/123
f 86/372/78 84/425/78 115/373/78
f 83/375/124 116/426/124 115/376/124
