# Blender 4.0.2
# www.blender.org
mtllib sphere_low.mtl
o Sphere
v 0.250000 0.353553 -0.250000
v 0.353553 0.000000 -0.353553
v 0.250000 -0.353553 -0.250000
v 0.353553 0.353553 0.000000
v 0.500000 0.000000 0.000000
v 0.353553 -0.353553 0.000000
v 0.250000 0.353553 0.250000
v 0.353553 0.000000 0.353553
v 0.250000 -0.353553 0.250000
v 0.000000 0.353553 0.353553
v 0.000000 0.000000 0.500000
v 0.000000 -0.353553 0.353553
v -0.250000 0.353553 0.250000
v -0.353553 0.000000 0.353553
v -0.250000 -0.353553 0.250000
v 0.000000 -0.500000 0.000000
v -0.353553 0.353553 0.000000
v -0.500000 0.000000 0.000000
v -0.353553 -0.353553 0.000000
v -0.250000 0.353553 -0.250000
v -0.353553 0.000000 -0.353553
v -0.250000 -0.353553 -0.250000
v 0.000000 0.500000 0.000000
v 0.000000 0.353553 -0.353553
v 0.000000 0.000000 -0.500000
v 0.000000 -0.353553 -0.353553
vn -0.0000 -1.0000 -0.0000
vn -0.0000 -0.6630 -0.7486
vn 0.5294 -0.6630 -0.5294
vn -0.0000 -0.0000 -1.0000
vn 0.5294 0.6630 -0.5294
vn 0.7071 -0.0000 -0.7071
vn -0.0000 0.6630 -0.7486
vn -0.0000 1.0000 -0.0000
vn 1.0000 -0.0000 -0.0000
vn 0.7486 -0.6630 -0.0000
vn 0.7486 0.6630 -0.0000
vn 0.5294 -0.6630 0.5294
vn 0.7071 -0.0000 0.7071
vn 0.5294 0.6630 0.5294
vn -0.0000 -0.6630 0.7486
vn -0.0000 -0.0000 1.0000
vn -0.0000 0.6630 0.7486
vn -0.5294 -0.6630 0.5294
vn -0.7071 -0.0000 0.7071
vn -0.5294 0.6630 0.5294
vn -0.7486 -0.6630 -0.0000
vn -1.0000 -0.0000 -0.0000
vn -0.7486 0.6630 -0.0000
vn -0.5294 0.6630 -0.5294
vn -0.5294 -0.6630 -0.5294
vn -0.7071 -0.0000 -0.7071
vt 0.687500 0.000000
vt 0.750000 0.250000
vt 0.625000 0.250000
vt 0.750000 0.500000
vt 0.625000 0.750000
vt 0.625000 0.500000
vt 0.750000 0.750000
vt 0.687500 1.000000
vt 0.500000 0.500000
vt 0.500000 0.250000
vt 0.562500 1.000000
vt 0.500000 0.750000
vt 0.562500 0.000000
vt 0.437500 0.000000
vt 0.375000 0.250000
vt 0.375000 0.500000
vt 0.437500 1.000000
vt 0.375000 0.750000
vt 0.312500 0.000000
vt 0.250000 0.250000
vt 0.250000 0.500000
vt 0.312500 1.000000
vt 0.250000 0.750000
vt 0.187500 0.000000
vt 0.125000 0.250000
vt 0.125000 0.500000
vt 0.187500 1.000000
vt 0.125000 0.750000
vt 0.062500 0.000000
vt 0.000000 0.250000
vt 0.000000 0.500000
vt 0.062500 1.000000
vt 0.000000 0.750000
vt 1.000000 0.750000
vt 0.937500 1.000000
vt 0.875000 0.750000
vt 0.937500 0.000000
vt 1.000000 0.250000
vt 0.875000 0.250000
vt 0.875000 0.500000
vt 1.000000 0.500000
vt 0.812500 1.000000
vt 0.812500 0.000000
s 1
f 16/1/1 26/2/2 3/3/3
f 25/4/4 1/5/5 2/6/6
f 25/4/4 3/3/3 26/2/2
f 24/7/7 23/8/8 1/5/5
f 1/5/5 5/9/9 2/6/6
f 2/6/6 6/10/10 3/3/3
f 1/5/5 23/11/8 4/12/11
f 16/13/1 3/3/3 6/10/10
f 16/14/1 6/10/10 9/15/12
f 4/12/11 8/16/13 5/9/9
f 6/10/10 8/16/13 9/15/12
f 4/12/11 23/17/8 7/18/14
f 16/19/1 9/15/12 12/20/15
f 7/18/14 11/21/16 8/16/13
f 8/16/13 12/20/15 9/15/12
f 7/18/14 23/22/8 10/23/17
f 16/24/1 12/20/15 15/25/18
f 10/23/17 14/26/19 11/21/16
f 11/21/16 15/25/18 12/20/15
f 10/23/17 23/27/8 13/28/20
f 16/29/1 15/25/18 19/30/21
f 13/28/20 18/31/22 14/26/19
f 14/26/19 19/30/21 15/25/18
f 13/28/20 23/32/8 17/33/23
f 17/34/23 23/35/8 20/36/24
f 16/37/1 19/38/21 22/39/25
f 17/34/23 21/40/26 18/41/22
f 18/41/22 22/39/25 19/38/21
f 21/40/26 26/2/2 22/39/25
f 20/36/24 23/42/8 24/7/7
f 16/43/1 22/39/25 26/2/2
f 20/36/24 25/4/4 21/40/26
f 25/4/4 24/7/7 1/5/5
f 25/4/4 2/6/6 3/3/3
f 1/5/5 4/12/11 5/9/9
f 2/6/6 5/9/9 6/10/10
f 4/12/11 7/18/14 8/16/13
f 6/10/10 5/9/9 8/16/13
f 7/18/14 10/23/17 11/21/16
f 8/16/13 11/21/16 12/20/15
f 10/23/17 13/28/20 14/26/19
f 11/21/16 14/26/19 15/25/18
f 13/28/20 17/33/23 18/31/22
f 14/26/19 18/31/22 19/30/21
f 17/34/23 20/36/24 21/40/26
f 18/41/22 21/40/26 22/39/25
f 21/40/26 25/4/4 26/2/2
f 20/36/24 24/7/7 25/4/4
