# Blender 4.0.2
# www.blender.org
mtllib sphere_mid.mtl
o Sphere
v 0.000000 0.191342 -0.461940
v 0.000000 0.000000 -0.500000
v 0.000000 -0.191342 -0.461940
v 0.000000 -0.461940 -0.191342
v 0.073223 0.461940 -0.176777
v 0.135299 0.353553 -0.326641
v 0.176777 0.191342 -0.426777
v 0.191342 0.000000 -0.461940
v 0.176777 -0.191342 -0.426777
v 0.135299 -0.353553 -0.326641
v 0.073223 -0.461940 -0.176777
v 0.135299 0.461940 -0.135299
v 0.250000 0.353553 -0.250000
v 0.326641 0.191342 -0.326641
v 0.353553 0.000000 -0.353553
v 0.326641 -0.191342 -0.326641
v 0.250000 -0.353553 -0.250000
v 0.135299 -0.461940 -0.135299
v 0.176777 0.461940 -0.073223
v 0.326641 0.353553 -0.135299
v 0.426777 0.191342 -0.176777
v 0.461940 0.000000 -0.191342
v 0.426777 -0.191342 -0.176777
v 0.326641 -0.353553 -0.135299
v 0.176777 -0.461940 -0.073223
v 0.191342 0.461940 0.000000
v 0.353553 0.353553 0.000000
v 0.461940 0.191342 0.000000
v 0.500000 0.000000 0.000000
v 0.461940 -0.191342 0.000000
v 0.353553 -0.353553 0.000000
v 0.191342 -0.461940 0.000000
v 0.176777 0.461940 0.073223
v 0.326641 0.353553 0.135299
v 0.426777 0.191342 0.176777
v 0.461940 0.000000 0.191342
v 0.426777 -0.191342 0.176777
v 0.326641 -0.353553 0.135299
v 0.176777 -0.461940 0.073223
v 0.135299 0.461940 0.135299
v 0.250000 0.353553 0.250000
v 0.326641 0.191342 0.326641
v 0.353553 0.000000 0.353553
v 0.326641 -0.191342 0.326641
v 0.250000 -0.353553 0.250000
v 0.135299 -0.461940 0.135299
v 0.073223 0.461940 0.176777
v 0.135299 0.353553 0.326641
v 0.176777 0.191342 0.426777
v 0.191342 0.000000 0.461940
v 0.176777 -0.191342 0.426777
v 0.135299 -0.353553 0.326641
v 0.073223 -0.461940 0.176777
v -0.000000 0.461940 0.191342
v -0.000000 0.353553 0.353553
v -0.000000 0.191342 0.461940
v -0.000000 0.000000 0.500000
v -0.000000 -0.191342 0.461940
v -0.000000 -0.353553 0.353553
v -0.000000 -0.461940 0.191342
v 0.000000 -0.500000 0.000000
v 0.000000 0.500000 0.000000
v -0.073223 0.461940 0.176777
v -0.135299 0.353553 0.326641
v -0.176777 0.191342 0.426777
v -0.191342 0.000000 0.461940
v -0.176777 -0.191342 0.426777
v -0.135299 -0.353553 0.326641
v -0.073223 -0.461940 0.176777
v -0.135299 0.461940 0.135299
v -0.250000 0.353553 0.250000
v -0.326641 0.191342 0.326641
v -0.353554 0.000000 0.353553
v -0.326641 -0.191342 0.326641
v -0.250000 -0.353553 0.250000
v -0.135299 -0.461940 0.135299
v -0.176777 0.461940 0.073223
v -0.326641 0.353553 0.135299
v -0.426777 0.191342 0.176777
v -0.461940 0.000000 0.191341
v -0.426777 -0.191342 0.176777
v -0.326641 -0.353553 0.135299
v -0.176777 -0.461940 0.073223
v -0.191342 0.461940 -0.000000
v -0.353553 0.353553 -0.000000
v -0.461940 0.191342 -0.000000
v -0.500000 0.000000 -0.000000
v -0.461940 -0.191342 -0.000000
v -0.353553 -0.353553 -0.000000
v -0.191342 -0.461940 -0.000000
v -0.176777 0.461940 -0.073223
v -0.326641 0.353553 -0.135299
v -0.426777 0.191342 -0.176777
v -0.461940 0.000000 -0.191342
v -0.426777 -0.191342 -0.176777
v -0.326641 -0.353553 -0.135299
v -0.176777 -0.461940 -0.073223
v -0.135299 0.461940 -0.135299
v -0.250000 0.353553 -0.250000
v -0.326641 0.191342 -0.326641
v -0.353553 0.000000 -0.353554
v -0.326641 -0.191342 -0.326641
v -0.250000 -0.353553 -0.250000
v -0.135299 -0.461940 -0.135299
v -0.073223 0.461940 -0.176777
v -0.135299 0.353553 -0.326641
v -0.176776 0.191342 -0.426777
v -0.191341 0.000000 -0.461940
v -0.176776 -0.191342 -0.426777
v -0.135299 -0.353553 -0.326641
v -0.073223 -0.461940 -0.176777
v 0.000000 0.461940 -0.191342
v 0.000000 0.353553 -0.353553
v 0.000000 -0.353553 -0.353553
vn -0.0000 -0.0000 -1.0000
vn 0.3549 -0.3744 -0.8567
vn -0.0000 -0.3744 -0.9273
vn -0.0000 0.6952 -0.7189
vn 0.3549 0.3744 -0.8567
vn -0.0000 0.3744 -0.9273
vn -0.0000 0.9152 -0.4031
vn -0.0000 1.0000 -0.0000
vn 0.1543 0.9152 -0.3724
vn -0.0000 -1.0000 -0.0000
vn -0.0000 -0.9152 -0.4031
vn 0.1543 -0.9152 -0.3724
vn -0.0000 -0.6952 -0.7189
vn 0.2751 -0.6952 -0.6641
vn 0.3827 -0.0000 -0.9239
vn 0.2751 0.6952 -0.6641
vn 0.2850 -0.9152 -0.2850
vn 0.5083 -0.6952 -0.5083
vn 0.7071 -0.0000 -0.7071
vn 0.5083 0.6952 -0.5083
vn 0.6557 -0.3744 -0.6557
vn 0.6557 0.3744 -0.6557
vn 0.2850 0.9152 -0.2850
vn 0.6641 0.6952 -0.2751
vn 0.3724 -0.9152 -0.1543
vn 0.8567 -0.3744 -0.3549
vn 0.8567 0.3744 -0.3549
vn 0.3724 0.9152 -0.1543
vn 0.6641 -0.6952 -0.2751
vn 0.9239 -0.0000 -0.3827
vn 0.4031 -0.9152 -0.0000
vn 1.0000 -0.0000 -0.0000
vn 0.9273 -0.3744 -0.0000
vn 0.7189 0.6952 -0.0000
vn 0.9273 0.3744 -0.0000
vn 0.4031 0.9152 -0.0000
vn 0.7189 -0.6952 -0.0000
vn 0.3724 0.9152 0.1543
vn 0.3724 -0.9152 0.1543
vn 0.6641 -0.6952 0.2751
vn 0.9239 -0.0000 0.3827
vn 0.6641 0.6952 0.2751
vn 0.8567 -0.3744 0.3549
vn 0.8567 0.3744 0.3549
vn 0.5083 -0.6952 0.5083
vn 0.6557 0.3744 0.6557
vn 0.7071 -0.0000 0.7071
vn 0.2850 0.9152 0.2850
vn 0.5083 0.6952 0.5083
vn 0.2850 -0.9152 0.2850
vn 0.6557 -0.3744 0.6557
vn 0.1543 -0.9152 0.3724
vn 0.3827 -0.0000 0.9239
vn 0.3549 -0.3744 0.8567
vn 0.3549 0.3744 0.8567
vn 0.1543 0.9152 0.3724
vn 0.2751 -0.6952 0.6641
vn 0.2751 0.6952 0.6641
vn -0.0000 -0.3744 0.9273
vn -0.0000 0.3744 0.9273
vn -0.0000 0.9152 0.4031
vn -0.0000 -0.9152 0.4031
vn -0.0000 -0.6952 0.7189
vn -0.0000 -0.0000 1.0000
vn -0.0000 0.6952 0.7189
vn -0.1543 -0.9152 0.3724
vn -0.3549 -0.3744 0.8567
vn -0.2751 -0.6952 0.6641
vn -0.3827 -0.0000 0.9239
vn -0.2751 0.6952 0.6641
vn -0.3549 0.3744 0.8567
vn -0.1543 0.9152 0.3724
vn -0.6557 0.3744 0.6557
vn -0.7071 -0.0000 0.7071
vn -0.5083 0.6952 0.5083
vn -0.5083 -0.6952 0.5083
vn -0.2850 -0.9152 0.2850
vn -0.6557 -0.3744 0.6557
vn -0.2850 0.9152 0.2850
vn -0.3724 -0.9152 0.1543
vn -0.8567 -0.3744 0.3549
vn -0.8567 0.3744 0.3549
vn -0.3724 0.9152 0.1543
vn -0.6641 -0.6952 0.2751
vn -0.9239 -0.0000 0.3827
vn -0.6641 0.6952 0.2751
vn -0.9273 0.3744 -0.0000
vn -0.4031 0.9152 -0.0000
vn -0.4031 -0.9152 -0.0000
vn -0.9273 -0.3744 -0.0000
vn -0.7189 -0.6952 -0.0000
vn -1.0000 -0.0000 -0.0000
vn -0.7189 0.6952 -0.0000
vn -0.3724 -0.9152 -0.1543
vn -0.6641 -0.6952 -0.2751
vn -0.8567 0.3744 -0.3549
vn -0.9239 -0.0000 -0.3827
vn -0.6641 0.6952 -0.2751
vn -0.8567 -0.3744 -0.3549
vn -0.3724 0.9152 -0.1543
vn -0.5083 0.6952 -0.5083
vn -0.2850 -0.9152 -0.2850
vn -0.6557 -0.3744 -0.6557
vn -0.6557 0.3744 -0.6557
vn -0.2850 0.9152 -0.2850
vn -0.5083 -0.6952 -0.5083
vn -0.7071 -0.0000 -0.7071
vn -0.1543 -0.9152 -0.3724
vn -0.3549 -0.3744 -0.8567
vn -0.3549 0.3744 -0.8567
vn -0.1543 0.9152 -0.3724
vn -0.2751 -0.6952 -0.6641
vn -0.3827 -0.0000 -0.9239
vn -0.2751 0.6952 -0.6641
vt 0.750000 0.500000
vt 0.687500 0.375000
vt 0.750000 0.375000
vt 0.750000 0.750000
vt 0.687500 0.625000
vt 0.750000 0.625000
vt 0.750000 0.875000
vt 0.718750 1.000000
vt 0.687500 0.875000
vt 0.718750 0.000000
vt 0.750000 0.125000
vt 0.687500 0.125000
vt 0.750000 0.250000
vt 0.687500 0.250000
vt 0.687500 0.500000
vt 0.687500 0.750000
vt 0.656250 0.000000
vt 0.625000 0.125000
vt 0.625000 0.250000
vt 0.625000 0.500000
vt 0.625000 0.750000
vt 0.625000 0.375000
vt 0.625000 0.625000
vt 0.656250 1.000000
vt 0.625000 0.875000
vt 0.562500 0.750000
vt 0.562500 0.125000
vt 0.562500 0.375000
vt 0.562500 0.625000
vt 0.593750 1.000000
vt 0.562500 0.875000
vt 0.593750 0.000000
vt 0.562500 0.250000
vt 0.562500 0.500000
vt 0.500000 0.125000
vt 0.500000 0.500000
vt 0.500000 0.375000
vt 0.500000 0.750000
vt 0.500000 0.625000
vt 0.531250 1.000000
vt 0.500000 0.875000
vt 0.531250 0.000000
vt 0.500000 0.250000
vt 0.468750 1.000000
vt 0.437500 0.875000
vt 0.468750 0.000000
vt 0.437500 0.125000
vt 0.437500 0.250000
vt 0.437500 0.500000
vt 0.437500 0.750000
vt 0.437500 0.375000
vt 0.437500 0.625000
vt 0.375000 0.250000
vt 0.375000 0.625000
vt 0.375000 0.500000
vt 0.375000 0.875000
vt 0.375000 0.750000
vt 0.375000 0.125000
vt 0.375000 0.375000
vt 0.406250 1.000000
vt 0.406250 0.000000
vt 0.312500 0.125000
vt 0.312500 0.500000
vt 0.312500 0.375000
vt 0.312500 0.625000
vt 0.343750 1.000000
vt 0.312500 0.875000
vt 0.343750 0.000000
vt 0.312500 0.250000
vt 0.312500 0.750000
vt 0.250000 0.375000
vt 0.250000 0.625000
vt 0.281250 1.000000
vt 0.250000 0.875000
vt 0.281250 0.000000
vt 0.250000 0.125000
vt 0.250000 0.250000
vt 0.250000 0.500000
vt 0.250000 0.750000
vt 0.218750 0.000000
vt 0.187500 0.125000
vt 0.187500 0.375000
vt 0.187500 0.250000
vt 0.187500 0.500000
vt 0.187500 0.750000
vt 0.187500 0.625000
vt 0.218750 1.000000
vt 0.187500 0.875000
vt 0.125000 0.625000
vt 0.125000 0.500000
vt 0.125000 0.750000
vt 0.125000 0.250000
vt 0.125000 0.125000
vt 0.125000 0.375000
vt 0.156250 1.000000
vt 0.125000 0.875000
vt 0.156250 0.000000
vt 0.062500 0.125000
vt 0.062500 0.375000
vt 0.062500 0.625000
vt 0.093750 1.000000
vt 0.062500 0.875000
vt 0.093750 0.000000
vt 0.062500 0.250000
vt 0.062500 0.500000
vt 0.062500 0.750000
vt 0.000000 0.625000
vt 0.031250 1.000000
vt 0.000000 0.875000
vt 0.031250 0.000000
vt 0.000000 0.125000
vt 0.000000 0.375000
vt 0.000000 0.250000
vt 0.000000 0.500000
vt 0.000000 0.750000
vt 0.968750 0.000000
vt 1.000000 0.125000
vt 0.937500 0.125000
vt 1.000000 0.375000
vt 0.937500 0.250000
vt 1.000000 0.250000
vt 1.000000 0.500000
vt 0.937500 0.625000
vt 0.937500 0.500000
vt 1.000000 0.875000
vt 0.937500 0.750000
vt 1.000000 0.750000
vt 0.937500 0.375000
vt 1.000000 0.625000
vt 0.968750 1.000000
vt 0.937500 0.875000
vt 0.875000 0.750000
vt 0.875000 0.125000
vt 0.875000 0.375000
vt 0.875000 0.625000
vt 0.906250 1.000000
vt 0.875000 0.875000
vt 0.906250 0.000000
vt 0.875000 0.250000
vt 0.875000 0.500000
vt 0.812500 0.125000
vt 0.812500 0.375000
vt 0.812500 0.625000
vt 0.843750 1.000000
vt 0.812500 0.875000
vt 0.843750 0.000000
vt 0.812500 0.250000
vt 0.812500 0.500000
vt 0.812500 0.750000
vt 0.781250 1.000000
vt 0.781250 0.000000
s 1
f 2/1/1 9/2/2 3/3/3
f 113/4/4 7/5/5 1/6/6
f 112/7/7 62/8/8 5/9/9
f 61/10/10 4/11/11 11/12/12
f 114/13/13 9/2/2 10/14/14
f 1/6/6 8/15/15 2/1/1
f 113/4/4 5/9/9 6/16/16
f 114/13/13 11/12/12 4/11/11
f 61/17/10 11/12/12 18/18/17
f 9/2/2 17/19/18 10/14/14
f 7/5/5 15/20/19 8/15/15
f 5/9/9 13/21/20 6/16/16
f 10/14/14 18/18/17 11/12/12
f 9/2/2 15/20/19 16/22/21
f 6/16/16 14/23/22 7/5/5
f 5/9/9 62/24/8 12/25/23
f 12/25/23 20/26/24 13/21/20
f 17/19/18 25/27/25 18/18/17
f 15/20/19 23/28/26 16/22/21
f 13/21/20 21/29/27 14/23/22
f 12/25/23 62/30/8 19/31/28
f 61/32/10 18/18/17 25/27/25
f 17/19/18 23/28/26 24/33/29
f 15/20/19 21/29/27 22/34/30
f 24/33/29 32/35/31 25/27/25
f 23/28/26 29/36/32 30/37/33
f 21/29/27 27/38/34 28/39/35
f 19/31/28 62/40/8 26/41/36
f 61/42/10 25/27/25 32/35/31
f 23/28/26 31/43/37 24/33/29
f 21/29/27 29/36/32 22/34/30
f 19/31/28 27/38/34 20/26/24
f 26/41/36 62/44/8 33/45/38
f 61/46/10 32/35/31 39/47/39
f 30/37/33 38/48/40 31/43/37
f 28/39/35 36/49/41 29/36/32
f 27/38/34 33/45/38 34/50/42
f 32/35/31 38/48/40 39/47/39
f 29/36/32 37/51/43 30/37/33
f 27/38/34 35/52/44 28/39/35
f 37/51/43 45/53/45 38/48/40
f 36/49/41 42/54/46 43/55/47
f 34/50/42 40/56/48 41/57/49
f 39/47/39 45/53/45 46/58/50
f 36/49/41 44/59/51 37/51/43
f 34/50/42 42/54/46 35/52/44
f 33/45/38 62/60/8 40/56/48
f 61/61/10 39/47/39 46/58/50
f 45/53/45 53/62/52 46/58/50
f 44/59/51 50/63/53 51/64/54
f 41/57/49 49/65/55 42/54/46
f 40/56/48 62/66/8 47/67/56
f 61/68/10 46/58/50 53/62/52
f 45/53/45 51/64/54 52/69/57
f 42/54/46 50/63/53 43/55/47
f 40/56/48 48/70/58 41/57/49
f 50/63/53 58/71/59 51/64/54
f 48/70/58 56/72/60 49/65/55
f 47/67/56 62/73/8 54/74/61
f 61/75/10 53/62/52 60/76/62
f 51/64/54 59/77/63 52/69/57
f 50/63/53 56/72/60 57/78/64
f 47/67/56 55/79/65 48/70/58
f 53/62/52 59/77/63 60/76/62
f 61/80/10 60/76/62 69/81/66
f 59/77/63 67/82/67 68/83/68
f 56/72/60 66/84/69 57/78/64
f 54/74/61 64/85/70 55/79/65
f 59/77/63 69/81/66 60/76/62
f 57/78/64 67/82/67 58/71/59
f 55/79/65 65/86/71 56/72/60
f 54/74/61 62/87/8 63/88/72
f 66/84/69 72/89/73 73/90/74
f 63/88/72 71/91/75 64/85/70
f 69/81/66 75/92/76 76/93/77
f 66/84/69 74/94/78 67/82/67
f 64/85/70 72/89/73 65/86/71
f 63/88/72 62/95/8 70/96/79
f 61/97/10 69/81/66 76/93/77
f 68/83/68 74/94/78 75/92/76
f 75/92/76 83/98/80 76/93/77
f 73/90/74 81/99/81 74/94/78
f 71/91/75 79/100/82 72/89/73
f 70/96/79 62/101/8 77/102/83
f 61/103/10 76/93/77 83/98/80
f 75/92/76 81/99/81 82/104/84
f 73/90/74 79/100/82 80/105/85
f 70/96/79 78/106/86 71/91/75
f 78/106/86 86/107/87 79/100/82
f 77/102/83 62/108/8 84/109/88
f 61/110/10 83/98/80 90/111/89
f 82/104/84 88/112/90 89/113/91
f 80/105/85 86/107/87 87/114/92
f 78/106/86 84/109/88 85/115/93
f 82/104/84 90/111/89 83/98/80
f 80/105/85 88/112/90 81/99/81
f 61/116/10 90/117/89 97/118/94
f 88/119/90 96/120/95 89/121/91
f 87/122/92 93/123/96 94/124/97
f 84/125/88 92/126/98 85/127/93
f 89/121/91 97/118/94 90/117/89
f 87/122/92 95/128/99 88/119/90
f 85/127/93 93/123/96 86/129/87
f 84/125/88 62/130/8 91/131/100
f 91/131/100 99/132/101 92/126/98
f 96/120/95 104/133/102 97/118/94
f 94/124/97 102/134/103 95/128/99
f 92/126/98 100/135/104 93/123/96
f 91/131/100 62/136/8 98/137/105
f 61/138/10 97/118/94 104/133/102
f 96/120/95 102/134/103 103/139/106
f 94/124/97 100/135/104 101/140/107
f 103/139/106 111/141/108 104/133/102
f 101/140/107 109/142/109 102/134/103
f 99/132/101 107/143/110 100/135/104
f 98/137/105 62/144/8 105/145/111
f 61/146/10 104/133/102 111/141/108
f 103/139/106 109/142/109 110/147/112
f 101/140/107 107/143/110 108/148/113
f 98/137/105 106/149/114 99/132/101
f 105/145/111 62/150/8 112/7/7
f 61/151/10 111/141/108 4/11/11
f 110/147/112 3/3/3 114/13/13
f 107/143/110 2/1/1 108/148/113
f 106/149/114 112/7/7 113/4/4
f 110/147/112 4/11/11 111/141/108
f 108/148/113 3/3/3 109/142/109
f 106/149/114 1/6/6 107/143/110
f 2/1/1 8/15/15 9/2/2
f 113/4/4 6/16/16 7/5/5
f 114/13/13 3/3/3 9/2/2
f 1/6/6 7/5/5 8/15/15
f 113/4/4 112/7/7 5/9/9
f 114/13/13 10/14/14 11/12/12
f 9/2/2 16/22/21 17/19/18
f 7/5/5 14/23/22 15/20/19
f 5/9/9 12/25/23 13/21/20
f 10/14/14 17/19/18 18/18/17
f 9/2/2 8/15/15 15/20/19
f 6/16/16 13/21/20 14/23/22
f 12/25/23 19/31/28 20/26/24
f 17/19/18 24/33/29 25/27/25
f 15/20/19 22/34/30 23/28/26
f 13/21/20 20/26/24 21/29/27
f 17/19/18 16/22/21 23/28/26
f 15/20/19 14/23/22 21/29/27
f 24/33/29 31/43/37 32/35/31
f 23/28/26 22/34/30 29/36/32
f 21/29/27 20/26/24 27/38/34
f 23/28/26 30/37/33 31/43/37
f 21/29/27 28/39/35 29/36/32
f 19/31/28 26/41/36 27/38/34
f 30/37/33 37/51/43 38/48/40
f 28/39/35 35/52/44 36/49/41
f 27/38/34 26/41/36 33/45/38
f 32/35/31 31/43/37 38/48/40
f 29/36/32 36/49/41 37/51/43
f 27/38/34 34/50/42 35/52/44
f 37/51/43 44/59/51 45/53/45
f 36/49/41 35/52/44 42/54/46
f 34/50/42 33/45/38 40/56/48
f 39/47/39 38/48/40 45/53/45
f 36/49/41 43/55/47 44/59/51
f 34/50/42 41/57/49 42/54/46
f 45/53/45 52/69/57 53/62/52
f 44/59/51 43/55/47 50/63/53
f 41/57/49 48/70/58 49/65/55
f 45/53/45 44/59/51 51/64/54
f 42/54/46 49/65/55 50/63/53
f 40/56/48 47/67/56 48/70/58
f 50/63/53 57/78/64 58/71/59
f 48/70/58 55/79/65 56/72/60
f 51/64/54 58/71/59 59/77/63
f 50/63/53 49/65/55 56/72/60
f 47/67/56 54/74/61 55/79/65
f 53/62/52 52/69/57 59/77/63
f 59/77/63 58/71/59 67/82/67
f 56/72/60 65/86/71 66/84/69
f 54/74/61 63/88/72 64/85/70
f 59/77/63 68/83/68 69/81/66
f 57/78/64 66/84/69 67/82/67
f 55/79/65 64/85/70 65/86/71
f 66/84/69 65/86/71 72/89/73
f 63/88/72 70/96/79 71/91/75
f 69/81/66 68/83/68 75/92/76
f 66/84/69 73/90/74 74/94/78
f 64/85/70 71/91/75 72/89/73
f 68/83/68 67/82/67 74/94/78
f 75/92/76 82/104/84 83/98/80
f 73/90/74 80/105/85 81/99/81
f 71/91/75 78/106/86 79/100/82
f 75/92/76 74/94/78 81/99/81
f 73/90/74 72/89/73 79/100/82
f 70/96/79 77/102/83 78/106/86
f 78/106/86 85/115/93 86/107/87
f 82/104/84 81/99/81 88/112/90
f 80/105/85 79/100/82 86/107/87
f 78/106/86 77/102/83 84/109/88
f 82/104/84 89/113/91 90/111/89
f 80/105/85 87/114/92 88/112/90
f 88/119/90 95/128/99 96/120/95
f 87/122/92 86/129/87 93/123/96
f 84/125/88 91/131/100 92/126/98
f 89/121/91 96/120/95 97/118/94
f 87/122/92 94/124/97 95/128/99
f 85/127/93 92/126/98 93/123/96
f 91/131/100 98/137/105 99/132/101
f 96/120/95 103/139/106 104/133/102
f 94/124/97 101/140/107 102/134/103
f 92/126/98 99/132/101 100/135/104
f 96/120/95 95/128/99 102/134/103
f 94/124/97 93/123/96 100/135/104
f 103/139/106 110/147/112 111/141/108
f 101/140/107 108/148/113 109/142/109
f 99/132/101 106/149/114 107/143/110
f 103/139/106 102/134/103 109/142/109
f 101/140/107 100/135/104 107/143/110
f 98/137/105 105/145/111 106/149/114
f 110/147/112 109/142/109 3/3/3
f 107/143/110 1/6/6 2/1/1
f 106/149/114 105/145/111 112/7/7
f 110/147/112 114/13/13 4/11/11
f 108/148/113 2/1/1 3/3/3
f 106/149/114 113/4/4 1/6/6
