# Blender 4.0.2
# www.blender.org
mtllib sphere_high.mtl
o Sphere
v 0.000000 0.415735 -0.277785
v 0.000000 0.277785 -0.415735
v 0.000000 0.097545 -0.490393
v 0.000000 0.000000 -0.500000
v 0.000000 -0.097545 -0.490393
v 0.000000 -0.277785 -0.415735
v 0.019030 0.490393 -0.095671
v 0.037329 0.461940 -0.187665
v 0.054193 0.415735 -0.272448
v 0.068975 0.353553 -0.346760
v 0.081106 0.277785 -0.407747
v 0.090120 0.191342 -0.453064
v 0.095671 0.097545 -0.480970
v 0.097545 0.000000 -0.490393
v 0.095671 -0.097545 -0.480970
v 0.090120 -0.191342 -0.453064
v 0.081106 -0.277785 -0.407747
v 0.068975 -0.353553 -0.346760
v 0.054193 -0.415735 -0.272448
v 0.037329 -0.461940 -0.187665
v 0.019030 -0.490393 -0.095671
v 0.037329 0.490393 -0.090120
v 0.073223 0.461940 -0.176777
v 0.106304 0.415735 -0.256640
v 0.135299 0.353553 -0.326641
v 0.159095 0.277785 -0.384089
v 0.176777 0.191342 -0.426777
v 0.187665 0.097545 -0.453064
v 0.191342 0.000000 -0.461940
v 0.187665 -0.097545 -0.453064
v 0.176777 -0.191342 -0.426777
v 0.159095 -0.277785 -0.384089
v 0.135299 -0.353553 -0.326641
v 0.106304 -0.415735 -0.256640
v 0.073223 -0.461940 -0.176777
v 0.037329 -0.490393 -0.090120
v 0.054193 0.490393 -0.081106
v 0.106304 0.461940 -0.159095
v 0.154329 0.415735 -0.230970
v 0.196424 0.353553 -0.293969
v 0.230970 0.277785 -0.345671
v 0.256640 0.191342 -0.384089
v 0.272448 0.097545 -0.407747
v 0.277785 0.000000 -0.415735
v 0.272448 -0.097545 -0.407747
v 0.256640 -0.191342 -0.384089
v 0.230970 -0.277785 -0.345671
v 0.196424 -0.353553 -0.293969
v 0.154329 -0.415735 -0.230970
v 0.106304 -0.461940 -0.159095
v 0.054193 -0.490393 -0.081106
v 0.068975 0.490393 -0.068975
v 0.135299 0.461940 -0.135299
v 0.196424 0.415735 -0.196424
v 0.250000 0.353553 -0.250000
v 0.293969 0.277785 -0.293969
v 0.326641 0.191342 -0.326641
v 0.346760 0.097545 -0.346760
v 0.353553 0.000000 -0.353553
v 0.346760 -0.097545 -0.346760
v 0.326641 -0.191342 -0.326641
v 0.293969 -0.277785 -0.293969
v 0.250000 -0.353553 -0.250000
v 0.196424 -0.415735 -0.196424
v 0.135299 -0.461940 -0.135299
v 0.068975 -0.490393 -0.068975
v 0.081106 0.490393 -0.054193
v 0.159095 0.461940 -0.106304
v 0.230970 0.415735 -0.154329
v 0.293969 0.353553 -0.196424
v 0.345671 0.277785 -0.230970
v 0.384089 0.191342 -0.256640
v 0.407747 0.097545 -0.272447
v 0.415735 0.000000 -0.277785
v 0.407747 -0.097545 -0.272447
v 0.384089 -0.191342 -0.256640
v 0.345671 -0.277785 -0.230970
v 0.293969 -0.353553 -0.196424
v 0.230970 -0.415735 -0.154329
v 0.159095 -0.461940 -0.106304
v 0.081106 -0.490393 -0.054193
v 0.000000 0.500000 0.000000
v 0.090120 0.490393 -0.037329
v 0.176777 0.461940 -0.073223
v 0.256640 0.415735 -0.106304
v 0.326641 0.353553 -0.135299
v 0.384089 0.277785 -0.159095
v 0.426777 0.191342 -0.176777
v 0.453064 0.097545 -0.187665
v 0.461940 0.000000 -0.191342
v 0.453064 -0.097545 -0.187665
v 0.426777 -0.191342 -0.176777
v 0.384089 -0.277785 -0.159095
v 0.326641 -0.353553 -0.135299
v 0.256640 -0.415735 -0.106304
v 0.176777 -0.461940 -0.073223
v 0.090120 -0.490393 -0.037329
v 0.095671 0.490393 -0.019030
v 0.187665 0.461940 -0.037329
v 0.272448 0.415735 -0.054193
v 0.346760 0.353553 -0.068975
v 0.407746 0.277785 -0.081106
v 0.453064 0.191342 -0.090120
v 0.480970 0.097545 -0.095671
v 0.490393 0.000000 -0.097545
v 0.480970 -0.097545 -0.095671
v 0.453064 -0.191342 -0.090120
v 0.407746 -0.277785 -0.081106
v 0.346760 -0.353553 -0.068975
v 0.272448 -0.415735 -0.054193
v 0.187665 -0.461940 -0.037329
v 0.095671 -0.490393 -0.019030
v 0.097545 0.490393 0.000000
v 0.191342 0.461940 0.000000
v 0.277785 0.415735 0.000000
v 0.353553 0.353553 -0.000000
v 0.415735 0.277785 0.000000
v 0.461940 0.191342 -0.000000
v 0.490393 0.097545 0.000000
v 0.500000 0.000000 0.000000
v 0.490393 -0.097545 0.000000
v 0.461940 -0.191342 -0.000000
v 0.415735 -0.277785 0.000000
v 0.353553 -0.353553 -0.000000
v 0.277785 -0.415735 0.000000
v 0.191342 -0.461940 0.000000
v 0.097545 -0.490393 0.000000
v 0.095671 0.490393 0.019030
v 0.187665 0.461940 0.037329
v 0.272447 0.415735 0.054193
v 0.346760 0.353553 0.068975
v 0.407746 0.277785 0.081106
v 0.453064 0.191342 0.090120
v 0.480970 0.097545 0.095671
v 0.490392 0.000000 0.097545
v 0.480970 -0.097545 0.095671
v 0.453064 -0.191342 0.090120
v 0.407746 -0.277785 0.081106
v 0.346760 -0.353553 0.068975
v 0.272447 -0.415735 0.054193
v 0.187665 -0.461940 0.037329
v 0.095671 -0.490393 0.019030
v 0.090120 0.490393 0.037329
v 0.176777 0.461940 0.073223
v 0.256640 0.415735 0.106304
v 0.326641 0.353553 0.135299
v 0.384089 0.277785 0.159095
v 0.426777 0.191342 0.176777
v 0.453064 0.097545 0.187665
v 0.461940 0.000000 0.191342
v 0.453064 -0.097545 0.187665
v 0.426777 -0.191342 0.176777
v 0.384089 -0.277785 0.159095
v 0.326641 -0.353553 0.135299
v 0.256640 -0.415735 0.106304
v 0.176777 -0.461940 0.073223
v 0.090120 -0.490393 0.037329
v 0.081106 0.490393 0.054193
v 0.159095 0.461940 0.106304
v 0.230970 0.415735 0.154329
v 0.293969 0.353553 0.196424
v 0.345671 0.277785 0.230970
v 0.384089 0.191342 0.256640
v 0.407746 0.097545 0.272448
v 0.415735 0.000000 0.277785
v 0.407746 -0.097545 0.272448
v 0.384089 -0.191342 0.256640
v 0.345671 -0.277785 0.230970
v 0.293969 -0.353553 0.196424
v 0.230970 -0.415735 0.154329
v 0.159095 -0.461940 0.106304
v 0.081106 -0.490393 0.054193
v 0.068975 0.490393 0.068975
v 0.135299 0.461940 0.135299
v 0.196424 0.415735 0.196424
v 0.250000 0.353553 0.250000
v 0.293969 0.277785 0.293969
v 0.326641 0.191342 0.326641
v 0.346760 0.097545 0.346760
v 0.353553 0.000000 0.353553
v 0.346760 -0.097545 0.346760
v 0.326641 -0.191342 0.326641
v 0.293969 -0.277785 0.293969
v 0.250000 -0.353553 0.250000
v 0.196424 -0.415735 0.196424
v 0.135299 -0.461940 0.135299
v 0.068975 -0.490393 0.068975
v 0.054193 0.490393 0.081106
v 0.106304 0.461940 0.159095
v 0.154329 0.415735 0.230970
v 0.196424 0.353553 0.293969
v 0.230970 0.277785 0.345671
v 0.256640 0.191342 0.384089
v 0.272447 0.097545 0.407746
v 0.277785 0.000000 0.415735
v 0.272447 -0.097545 0.407746
v 0.256640 -0.191342 0.384089
v 0.230970 -0.277785 0.345671
v 0.196424 -0.353553 0.293969
v 0.154329 -0.415735 0.230970
v 0.106304 -0.461940 0.159095
v 0.054193 -0.490393 0.081106
v 0.037329 0.490393 0.090120
v 0.073223 0.461940 0.176777
v 0.106304 0.415735 0.256640
v 0.135299 0.353553 0.326641
v 0.159095 0.277785 0.384089
v 0.176777 0.191342 0.426777
v 0.187665 0.097545 0.453064
v 0.191341 0.000000 0.461940
v 0.187665 -0.097545 0.453064
v 0.176777 -0.191342 0.426777
v 0.159095 -0.277785 0.384089
v 0.135299 -0.353553 0.326641
v 0.106304 -0.415735 0.256640
v 0.073223 -0.461940 0.176777
v 0.037329 -0.490393 0.090120
v 0.019030 0.490393 0.095671
v 0.037329 0.461940 0.187665
v 0.054193 0.415735 0.272447
v 0.068975 0.353553 0.346760
v 0.081106 0.277785 0.407746
v 0.090120 0.191342 0.453064
v 0.095671 0.097545 0.480970
v 0.097545 0.000000 0.490392
v 0.095671 -0.097545 0.480970
v 0.090120 -0.191342 0.453064
v 0.081106 -0.277785 0.407746
v 0.068975 -0.353553 0.346760
v 0.054193 -0.415735 0.272447
v 0.037329 -0.461940 0.187665
v 0.019030 -0.490393 0.095671
v -0.000000 0.490393 0.097545
v -0.000000 0.461940 0.191342
v -0.000000 0.415735 0.277785
v -0.000000 0.353553 0.353553
v -0.000000 0.277785 0.415735
v 0.000000 0.191342 0.461940
v -0.000000 0.097545 0.490392
v -0.000000 0.000000 0.500000
v -0.000000 -0.097545 0.490392
v 0.000000 -0.191342 0.461940
v -0.000000 -0.277785 0.415735
v -0.000000 -0.353553 0.353553
v -0.000000 -0.415735 0.277785
v -0.000000 -0.461940 0.191342
v -0.000000 -0.490393 0.097545
v -0.019030 0.490393 0.095671
v -0.037329 0.461940 0.187665
v -0.054193 0.415735 0.272447
v -0.068975 0.353553 0.346760
v -0.081106 0.277785 0.407746
v -0.090120 0.191342 0.453064
v -0.095671 0.097545 0.480970
v -0.097545 0.000000 0.490392
v -0.095671 -0.097545 0.480970
v -0.090120 -0.191342 0.453064
v -0.081106 -0.277785 0.407746
v -0.068975 -0.353553 0.346760
v -0.054193 -0.415735 0.272447
v -0.037329 -0.461940 0.187665
v -0.019030 -0.490393 0.095671
v -0.037329 0.490393 0.090120
v -0.073223 0.461940 0.176777
v -0.106304 0.415735 0.256640
v -0.135299 0.353553 0.326641
v -0.159095 0.277785 0.384089
v -0.176777 0.191342 0.426777
v -0.187665 0.097545 0.453064
v -0.191342 0.000000 0.461939
v -0.187665 -0.097545 0.453064
v -0.176777 -0.191342 0.426777
v -0.159095 -0.277785 0.384089
v -0.135299 -0.353553 0.326641
v -0.106304 -0.415735 0.256640
v -0.073223 -0.461940 0.176777
v -0.037329 -0.490393 0.090120
v -0.054193 0.490393 0.081106
v -0.106304 0.461940 0.159095
v -0.154329 0.415735 0.230970
v -0.196424 0.353553 0.293969
v -0.230970 0.277785 0.345671
v -0.256640 0.191342 0.384089
v -0.272448 0.097545 0.407746
v -0.277785 0.000000 0.415734
v -0.272448 -0.097545 0.407746
v -0.256640 -0.191342 0.384089
v -0.230970 -0.277785 0.345671
v -0.196424 -0.353553 0.293969
v -0.154329 -0.415735 0.230970
v -0.106304 -0.461940 0.159095
v -0.054193 -0.490393 0.081106
v -0.068975 0.490393 0.068975
v -0.135299 0.461940 0.135299
v -0.196424 0.415735 0.196424
v -0.250000 0.353553 0.250000
v -0.293969 0.277785 0.293969
v -0.326641 0.191342 0.326641
v -0.346760 0.097545 0.346760
v -0.353553 0.000000 0.353553
v -0.346760 -0.097545 0.346760
v -0.326641 -0.191342 0.326641
v -0.293969 -0.277785 0.293969
v -0.250000 -0.353553 0.250000
v -0.196424 -0.415735 0.196424
v -0.135299 -0.461940 0.135299
v -0.068975 -0.490393 0.068975
v 0.000000 -0.500000 0.000000
v -0.081106 0.490393 0.054193
v -0.159095 0.461940 0.106304
v -0.230970 0.415735 0.154329
v -0.293969 0.353553 0.196424
v -0.345671 0.277785 0.230970
v -0.384089 0.191342 0.256640
v -0.407746 0.097545 0.272447
v -0.415735 0.000000 0.277785
v -0.407746 -0.097545 0.272447
v -0.384089 -0.191342 0.256640
v -0.345671 -0.277785 0.230970
v -0.293969 -0.353553 0.196424
v -0.230970 -0.415735 0.154329
v -0.159095 -0.461940 0.106304
v -0.081106 -0.490393 0.054193
v -0.090120 0.490393 0.037329
v -0.176777 0.461940 0.073223
v -0.256640 0.415735 0.106304
v -0.326641 0.353553 0.135299
v -0.384089 0.277785 0.159095
v -0.426777 0.191342 0.176777
v -0.453064 0.097545 0.187665
v -0.461939 0.000000 0.191341
v -0.453064 -0.097545 0.187665
v -0.426777 -0.191342 0.176777
v -0.384089 -0.277785 0.159095
v -0.326641 -0.353553 0.135299
v -0.256640 -0.415735 0.106304
v -0.176777 -0.461940 0.073223
v -0.090120 -0.490393 0.037329
v -0.095671 0.490393 0.019030
v -0.187665 0.461940 0.037329
v -0.272447 0.415735 0.054193
v -0.346760 0.353553 0.068975
v -0.407746 0.277785 0.081106
v -0.453064 0.191342 0.090120
v -0.480970 0.097545 0.095671
v -0.490392 0.000000 0.097545
v -0.480970 -0.097545 0.095671
v -0.453064 -0.191342 0.090120
v -0.407746 -0.277785 0.081106
v -0.346760 -0.353553 0.068975
v -0.272447 -0.415735 0.054193
v -0.187665 -0.461940 0.037329
v -0.095671 -0.490393 0.019030
v -0.097545 0.490393 -0.000000
v -0.191342 0.461940 -0.000000
v -0.277785 0.415735 -0.000000
v -0.353553 0.353553 -0.000000
v -0.415735 0.277785 -0.000000
v -0.461940 0.191342 -0.000000
v -0.490392 0.097545 -0.000000
v -0.500000 0.000000 -0.000000
v -0.490392 -0.097545 -0.000000
v -0.461940 -0.191342 -0.000000
v -0.415735 -0.277785 -0.000000
v -0.353553 -0.353553 -0.000000
v -0.277785 -0.415735 -0.000000
v -0.191342 -0.461940 -0.000000
v -0.097545 -0.490393 -0.000000
v -0.095671 0.490393 -0.019030
v -0.187665 0.461940 -0.037329
v -0.272447 0.415735 -0.054193
v -0.346760 0.353553 -0.068975
v -0.407746 0.277785 -0.081106
v -0.453064 0.191342 -0.090120
v -0.480970 0.097545 -0.095671
v -0.490392 0.000000 -0.097545
v -0.480970 -0.097545 -0.095671
v -0.453064 -0.191342 -0.090120
v -0.407746 -0.277785 -0.081106
v -0.346760 -0.353553 -0.068975
v -0.272447 -0.415735 -0.054193
v -0.187665 -0.461940 -0.037329
v -0.095671 -0.490393 -0.019030
v -0.090120 0.490393 -0.037329
v -0.176777 0.461940 -0.073223
v -0.256640 0.415735 -0.106304
v -0.326641 0.353553 -0.135299
v -0.384089 0.277785 -0.159095
v -0.426776 0.191342 -0.176777
v -0.453063 0.097545 -0.187665
v -0.461939 0.000000 -0.191342
v -0.453063 -0.097545 -0.187665
v -0.426776 -0.191342 -0.176777
v -0.384089 -0.277785 -0.159095
v -0.326641 -0.353553 -0.135299
v -0.256640 -0.415735 -0.106304
v -0.176777 -0.461940 -0.073223
v -0.090120 -0.490393 -0.037329
v -0.081106 0.490393 -0.054193
v -0.159095 0.461940 -0.106304
v -0.230970 0.415735 -0.154329
v -0.293969 0.353553 -0.196424
v -0.345671 0.277785 -0.230970
v -0.384089 0.191342 -0.256640
v -0.407746 0.097545 -0.272448
v -0.415734 0.000000 -0.277785
v -0.407746 -0.097545 -0.272448
v -0.384089 -0.191342 -0.256640
v -0.345671 -0.277785 -0.230970
v -0.293969 -0.353553 -0.196424
v -0.230970 -0.415735 -0.154329
v -0.159095 -0.461940 -0.106304
v -0.081106 -0.490393 -0.054193
v -0.068975 0.490393 -0.068975
v -0.135299 0.461940 -0.135299
v -0.196423 0.415735 -0.196424
v -0.250000 0.353553 -0.250000
v -0.293969 0.277785 -0.293969
v -0.326641 0.191342 -0.326641
v -0.346760 0.097545 -0.346760
v -0.353553 0.000000 -0.353553
v -0.346760 -0.097545 -0.346760
v -0.326641 -0.191342 -0.326641
v -0.293969 -0.277785 -0.293969
v -0.250000 -0.353553 -0.250000
v -0.196423 -0.415735 -0.196424
v -0.135299 -0.461940 -0.135299
v -0.068975 -0.490393 -0.068975
v -0.054193 0.490393 -0.081106
v -0.106304 0.461940 -0.159095
v -0.154329 0.415735 -0.230970
v -0.196424 0.353553 -0.293969
v -0.230970 0.277785 -0.345671
v -0.256640 0.191342 -0.384089
v -0.272447 0.097545 -0.407746
v -0.277785 0.000000 -0.415734
v -0.272447 -0.097545 -0.407746
v -0.256640 -0.191342 -0.384089
v -0.230970 -0.277785 -0.345671
v -0.196424 -0.353553 -0.293969
v -0.154329 -0.415735 -0.230970
v -0.106304 -0.461940 -0.159095
v -0.054193 -0.490393 -0.081106
v -0.037329 0.490393 -0.090120
v -0.073223 0.461940 -0.176777
v -0.106304 0.415735 -0.256640
v -0.135299 0.353553 -0.326641
v -0.159095 0.277785 -0.384089
v -0.176777 0.191342 -0.426776
v -0.187665 0.097545 -0.453063
v -0.191341 0.000000 -0.461939
v -0.187665 -0.097545 -0.453063
v -0.176777 -0.191342 -0.426776
v -0.159095 -0.277785 -0.384089
v -0.135299 -0.353553 -0.326641
v -0.106304 -0.415735 -0.256640
v -0.073223 -0.461940 -0.176777
v -0.037329 -0.490393 -0.090120
v -0.019030 0.490393 -0.095671
v -0.037329 0.461940 -0.187665
v -0.054193 0.415735 -0.272447
v -0.068975 0.353553 -0.346760
v -0.081106 0.277785 -0.407746
v -0.090120 0.191342 -0.453063
v -0.095671 0.097545 -0.480970
v -0.097545 0.000000 -0.490392
v -0.095671 -0.097545 -0.480970
v -0.090120 -0.191342 -0.453063
v -0.081106 -0.277785 -0.407746
v -0.068975 -0.353553 -0.346760
v -0.054193 -0.415735 -0.272447
v -0.037329 -0.461940 -0.187665
v -0.019030 -0.490393 -0.095671
v 0.000000 0.490393 -0.097545
v 0.000000 0.461940 -0.191342
v 0.000000 0.353553 -0.353553
v 0.000000 0.191342 -0.461940
v 0.000000 -0.191342 -0.461940
v 0.000000 -0.353553 -0.353553
v 0.000000 -0.415735 -0.277785
v 0.000000 -0.461940 -0.191342
v 0.000000 -0.490393 -0.097545
vn -0.0000 0.9217 -0.3879
vn 0.0392 0.9796 -0.1971
vn 0.0757 0.9217 -0.3804
vn -0.0000 -0.1939 -0.9810
vn 0.1804 -0.3805 -0.9070
vn -0.0000 -0.3805 -0.9248
vn -0.0000 0.8286 -0.5598
vn 0.1092 0.8286 -0.5490
vn 0.1626 -0.5528 -0.8173
vn -0.0000 -0.5528 -0.8333
vn -0.0000 0.7041 -0.7101
vn 0.1385 0.7041 -0.6965
vn 0.1385 -0.7041 -0.6965
vn -0.0000 -0.7041 -0.7101
vn -0.0000 0.5528 -0.8333
vn 0.1626 0.5528 -0.8173
vn 0.1092 -0.8286 -0.5490
vn -0.0000 -0.8286 -0.5598
vn -0.0000 0.3805 -0.9248
vn 0.1804 0.3805 -0.9070
vn 0.0757 -0.9217 -0.3804
vn -0.0000 -0.9217 -0.3879
vn -0.0000 0.1939 -0.9810
vn 0.1914 0.1939 -0.9622
vn 0.0392 -0.9796 -0.1971
vn -0.0000 -0.9796 -0.2010
vn 0.1951 -0.0000 -0.9808
vn -0.0000 -0.0000 -1.0000
vn -0.0000 0.9796 -0.2010
vn -0.0000 1.0000 -0.0000
vn -0.0000 -1.0000 -0.0000
vn 0.1914 -0.1939 -0.9622
vn 0.0769 0.9796 -0.1857
vn 0.0769 -0.9796 -0.1857
vn 0.3754 -0.1939 -0.9063
vn 0.1484 0.9217 -0.3584
vn 0.3539 -0.3805 -0.8544
vn 0.2142 0.8286 -0.5172
vn 0.3189 -0.5528 -0.7699
vn 0.2718 0.7041 -0.6561
vn 0.2718 -0.7041 -0.6561
vn 0.3189 0.5528 -0.7699
vn 0.2142 -0.8286 -0.5172
vn 0.3539 0.3805 -0.8544
vn 0.1484 -0.9217 -0.3584
vn 0.3754 0.1939 -0.9063
vn 0.3827 -0.0000 -0.9239
vn 0.4630 0.5528 -0.6929
vn 0.3945 -0.7041 -0.5905
vn 0.3110 -0.8286 -0.4654
vn 0.5138 0.3805 -0.7689
vn 0.2155 -0.9217 -0.3225
vn 0.5450 0.1939 -0.8157
vn 0.1117 -0.9796 -0.1671
vn 0.5556 -0.0000 -0.8315
vn 0.1117 0.9796 -0.1671
vn 0.5450 -0.1939 -0.8157
vn 0.2155 0.9217 -0.3225
vn 0.5138 -0.3805 -0.7689
vn 0.3110 0.8286 -0.4654
vn 0.4630 -0.5528 -0.6929
vn 0.3945 0.7041 -0.5905
vn 0.6937 -0.1939 -0.6937
vn 0.2743 0.9217 -0.2743
vn 0.6539 -0.3805 -0.6539
vn 0.3958 0.8286 -0.3958
vn 0.5893 -0.5528 -0.5893
vn 0.5021 0.7041 -0.5021
vn 0.5021 -0.7041 -0.5021
vn 0.5893 0.5528 -0.5893
vn 0.3958 -0.8286 -0.3958
vn 0.6539 0.3805 -0.6539
vn 0.2743 -0.9217 -0.2743
vn 0.6937 0.1939 -0.6937
vn 0.1421 -0.9796 -0.1421
vn 0.7071 -0.0000 -0.7071
vn 0.1421 0.9796 -0.1421
vn 0.4654 -0.8286 -0.3110
vn 0.7689 0.3805 -0.5138
vn 0.3225 -0.9217 -0.2155
vn 0.8157 0.1939 -0.5450
vn 0.1671 -0.9796 -0.1117
vn 0.8315 -0.0000 -0.5556
vn 0.1671 0.9796 -0.1117
vn 0.8157 -0.1939 -0.5450
vn 0.3225 0.9217 -0.2155
vn 0.7689 -0.3805 -0.5138
vn 0.4654 0.8286 -0.3110
vn 0.6929 -0.5528 -0.4630
vn 0.5905 0.7041 -0.3945
vn 0.5905 -0.7041 -0.3945
vn 0.6929 0.5528 -0.4630
vn 0.3584 0.9217 -0.1484
vn 0.8544 -0.3805 -0.3539
vn 0.5172 0.8286 -0.2142
vn 0.7699 -0.5528 -0.3189
vn 0.6561 0.7041 -0.2718
vn 0.6561 -0.7041 -0.2718
vn 0.7699 0.5528 -0.3189
vn 0.5172 -0.8286 -0.2142
vn 0.8544 0.3805 -0.3539
vn 0.3584 -0.9217 -0.1484
vn 0.9063 0.1939 -0.3754
vn 0.1857 -0.9796 -0.0769
vn 0.9239 -0.0000 -0.3827
vn 0.1857 0.9796 -0.0769
vn 0.9063 -0.1939 -0.3754
vn 0.9070 0.3805 -0.1804
vn 0.5490 -0.8286 -0.1092
vn 0.3804 -0.9217 -0.0757
vn 0.9622 0.1939 -0.1914
vn 0.1971 -0.9796 -0.0392
vn 0.9808 -0.0000 -0.1951
vn 0.1971 0.9796 -0.0392
vn 0.9622 -0.1939 -0.1914
vn 0.3804 0.9217 -0.0757
vn 0.9070 -0.3805 -0.1804
vn 0.5490 0.8286 -0.1092
vn 0.8173 -0.5528 -0.1626
vn 0.6965 0.7041 -0.1385
vn 0.6965 -0.7041 -0.1385
vn 0.8173 0.5528 -0.1626
vn 0.9248 -0.3805 -0.0000
vn 0.5598 0.8286 -0.0000
vn 0.8333 -0.5528 -0.0000
vn 0.7101 0.7041 -0.0000
vn 0.7101 -0.7041 -0.0000
vn 0.8333 0.5528 -0.0000
vn 0.5598 -0.8286 -0.0000
vn 0.9248 0.3805 -0.0000
vn 0.3879 -0.9217 -0.0000
vn 0.9810 0.1939 -0.0000
vn 0.2010 -0.9796 -0.0000
vn 1.0000 -0.0000 -0.0000
vn 0.2010 0.9796 -0.0000
vn 0.9810 -0.1939 -0.0000
vn 0.3879 0.9217 -0.0000
vn 0.3804 -0.9217 0.0757
vn 0.9070 0.3805 0.1804
vn 0.9622 0.1939 0.1914
vn 0.1971 -0.9796 0.0392
vn 0.9808 -0.0000 0.1951
vn 0.1971 0.9796 0.0392
vn 0.9622 -0.1939 0.1914
vn 0.3804 0.9217 0.0757
vn 0.9070 -0.3805 0.1804
vn 0.5490 0.8286 0.1092
vn 0.8173 -0.5528 0.1626
vn 0.6965 0.7041 0.1385
vn 0.6965 -0.7041 0.1385
vn 0.8173 0.5528 0.1626
vn 0.5490 -0.8286 0.1092
vn 0.8544 -0.3805 0.3539
vn 0.7699 -0.5528 0.3189
vn 0.6561 0.7041 0.2718
vn 0.6561 -0.7041 0.2718
vn 0.7699 0.5528 0.3189
vn 0.5172 -0.8286 0.2142
vn 0.8544 0.3805 0.3539
vn 0.3584 -0.9217 0.1484
vn 0.9063 0.1939 0.3754
vn 0.1857 -0.9796 0.0769
vn 0.9239 -0.0000 0.3827
vn 0.1857 0.9796 0.0769
vn 0.9063 -0.1939 0.3754
vn 0.3584 0.9217 0.1484
vn 0.5172 0.8286 0.2142
vn 0.1671 -0.9796 0.1117
vn 0.8157 0.1939 0.5450
vn 0.8315 -0.0000 0.5556
vn 0.1671 0.9796 0.1117
vn 0.8157 -0.1939 0.5450
vn 0.3225 0.9217 0.2155
vn 0.7689 -0.3805 0.5138
vn 0.4654 0.8286 0.3110
vn 0.6929 -0.5528 0.4630
vn 0.5905 0.7041 0.3945
vn 0.5905 -0.7041 0.3945
vn 0.6929 0.5528 0.4630
vn 0.4654 -0.8286 0.3110
vn 0.7689 0.3805 0.5138
vn 0.3225 -0.9217 0.2155
vn 0.5021 0.7041 0.5021
vn 0.5021 -0.7041 0.5021
vn 0.5893 0.5528 0.5893
vn 0.3958 -0.8286 0.3958
vn 0.6539 0.3805 0.6539
vn 0.2743 -0.9217 0.2743
vn 0.6937 0.1939 0.6937
vn 0.1421 -0.9796 0.1421
vn 0.7071 -0.0000 0.7071
vn 0.1421 0.9796 0.1421
vn 0.6937 -0.1939 0.6937
vn 0.2743 0.9217 0.2743
vn 0.6539 -0.3805 0.6539
vn 0.3958 0.8286 0.3958
vn 0.5893 -0.5528 0.5893
vn 0.5450 0.1939 0.8157
vn 0.5556 -0.0000 0.8315
vn 0.1117 0.9796 0.1671
vn 0.1117 -0.9796 0.1671
vn 0.5450 -0.1939 0.8157
vn 0.2155 0.9217 0.3225
vn 0.5138 -0.3805 0.7689
vn 0.3110 0.8286 0.4654
vn 0.4630 -0.5528 0.6929
vn 0.3945 0.7041 0.5905
vn 0.3945 -0.7041 0.5905
vn 0.4630 0.5528 0.6929
vn 0.3110 -0.8286 0.4654
vn 0.5138 0.3805 0.7689
vn 0.2155 -0.9217 0.3225
vn 0.2718 -0.7041 0.6561
vn 0.2718 0.7041 0.6561
vn 0.3189 0.5528 0.7699
vn 0.2142 -0.8286 0.5172
vn 0.3539 0.3805 0.8544
vn 0.1484 -0.9217 0.3584
vn 0.3754 0.1939 0.9063
vn 0.0769 -0.9796 0.1857
vn 0.3827 -0.0000 0.9239
vn 0.0769 0.9796 0.1857
vn 0.3754 -0.1939 0.9063
vn 0.1484 0.9217 0.3584
vn 0.3539 -0.3805 0.8544
vn 0.2142 0.8286 0.5172
vn 0.3189 -0.5528 0.7699
vn 0.0392 0.9796 0.1971
vn 0.0392 -0.9796 0.1971
vn 0.1914 -0.1939 0.9622
vn 0.0757 0.9217 0.3804
vn 0.1804 -0.3805 0.9070
vn 0.1092 0.8286 0.5490
vn 0.1626 -0.5528 0.8173
vn 0.1385 0.7041 0.6965
vn 0.1385 -0.7041 0.6965
vn 0.1626 0.5528 0.8173
vn 0.1092 -0.8286 0.5490
vn 0.1804 0.3805 0.9070
vn 0.0757 -0.9217 0.3804
vn 0.1914 0.1939 0.9622
vn 0.1951 -0.0000 0.9808
vn -0.0000 0.7041 0.7101
vn -0.0000 0.5528 0.8333
vn -0.0000 -0.7041 0.7101
vn -0.0000 -0.8286 0.5598
vn -0.0000 0.3805 0.9248
vn -0.0000 -0.9217 0.3879
vn -0.0000 0.1939 0.9810
vn -0.0000 -0.9796 0.2010
vn -0.0000 -0.0000 1.0000
vn -0.0000 0.9796 0.2010
vn -0.0000 -0.1939 0.9810
vn -0.0000 0.9217 0.3879
vn -0.0000 -0.3805 0.9248
vn -0.0000 0.8286 0.5598
vn -0.0000 -0.5528 0.8333
vn -0.1914 -0.1939 0.9622
vn -0.0757 0.9217 0.3804
vn -0.1804 -0.3805 0.9070
vn -0.1092 0.8286 0.5490
vn -0.1626 -0.5528 0.8173
vn -0.1385 0.7041 0.6965
vn -0.1385 -0.7041 0.6965
vn -0.1626 0.5528 0.8173
vn -0.1092 -0.8286 0.5490
vn -0.1804 0.3805 0.9070
vn -0.0757 -0.9217 0.3804
vn -0.1914 0.1939 0.9622
vn -0.0392 -0.9796 0.1971
vn -0.1951 -0.0000 0.9808
vn -0.0392 0.9796 0.1971
vn -0.2718 -0.7041 0.6561
vn -0.2142 -0.8286 0.5172
vn -0.3539 0.3805 0.8544
vn -0.1484 -0.9217 0.3584
vn -0.3754 0.1939 0.9063
vn -0.0769 -0.9796 0.1857
vn -0.3827 -0.0000 0.9239
vn -0.0769 0.9796 0.1857
vn -0.3754 -0.1939 0.9063
vn -0.1484 0.9217 0.3584
vn -0.3539 -0.3805 0.8544
vn -0.2142 0.8286 0.5172
vn -0.3189 -0.5528 0.7699
vn -0.2718 0.7041 0.6561
vn -0.3189 0.5528 0.7699
vn -0.5138 -0.3805 0.7689
vn -0.3110 0.8286 0.4654
vn -0.4630 -0.5528 0.6929
vn -0.3945 0.7041 0.5905
vn -0.3945 -0.7041 0.5905
vn -0.4630 0.5528 0.6929
vn -0.3110 -0.8286 0.4654
vn -0.5138 0.3805 0.7689
vn -0.2155 -0.9217 0.3225
vn -0.5450 0.1939 0.8157
vn -0.1117 -0.9796 0.1671
vn -0.5556 -0.0000 0.8315
vn -0.1117 0.9796 0.1671
vn -0.5450 -0.1939 0.8157
vn -0.2155 0.9217 0.3225
vn -0.2743 -0.9217 0.2743
vn -0.6539 0.3805 0.6539
vn -0.6937 0.1939 0.6937
vn -0.1421 -0.9796 0.1421
vn -0.7071 -0.0000 0.7071
vn -0.1421 0.9796 0.1421
vn -0.6937 -0.1939 0.6937
vn -0.2743 0.9217 0.2743
vn -0.6539 -0.3805 0.6539
vn -0.3958 0.8286 0.3958
vn -0.5893 -0.5528 0.5893
vn -0.5021 0.7041 0.5021
vn -0.5021 -0.7041 0.5021
vn -0.5893 0.5528 0.5893
vn -0.3958 -0.8286 0.3958
vn -0.4654 0.8286 0.3110
vn -0.7689 -0.3805 0.5138
vn -0.6929 -0.5528 0.4630
vn -0.5905 0.7041 0.3945
vn -0.5905 -0.7041 0.3945
vn -0.6929 0.5528 0.4630
vn -0.4654 -0.8286 0.3110
vn -0.7689 0.3805 0.5138
vn -0.3225 -0.9217 0.2155
vn -0.8157 0.1939 0.5450
vn -0.1671 -0.9796 0.1117
vn -0.8315 -0.0000 0.5556
vn -0.1671 0.9796 0.1117
vn -0.8157 -0.1939 0.5450
vn -0.3225 0.9217 0.2155
vn -0.8544 0.3805 0.3539
vn -0.9063 0.1939 0.3754
vn -0.1857 -0.9796 0.0769
vn -0.9239 -0.0000 0.3827
vn -0.1857 0.9796 0.0769
vn -0.9063 -0.1939 0.3754
vn -0.3584 0.9217 0.1484
vn -0.8544 -0.3805 0.3539
vn -0.5172 0.8286 0.2142
vn -0.7699 -0.5528 0.3189
vn -0.6561 0.7041 0.2718
vn -0.6561 -0.7041 0.2718
vn -0.7699 0.5528 0.3189
vn -0.5172 -0.8286 0.2142
vn -0.3584 -0.9217 0.1484
vn -0.9070 -0.3805 0.1804
vn -0.8173 -0.5528 0.1626
vn -0.6965 0.7041 0.1385
vn -0.6965 -0.7041 0.1385
vn -0.8173 0.5528 0.1626
vn -0.5490 -0.8286 0.1092
vn -0.9070 0.3805 0.1804
vn -0.3804 -0.9217 0.0757
vn -0.9622 0.1939 0.1914
vn -0.1971 -0.9796 0.0392
vn -0.9808 -0.0000 0.1951
vn -0.1971 0.9796 0.0392
vn -0.9622 -0.1939 0.1914
vn -0.3804 0.9217 0.0757
vn -0.5490 0.8286 0.1092
vn -0.2010 -0.9796 -0.0000
vn -0.9810 0.1939 -0.0000
vn -1.0000 -0.0000 -0.0000
vn -0.2010 0.9796 -0.0000
vn -0.9810 -0.1939 -0.0000
vn -0.3879 0.9217 -0.0000
vn -0.9248 -0.3805 -0.0000
vn -0.5598 0.8286 -0.0000
vn -0.8333 -0.5528 -0.0000
vn -0.7101 0.7041 -0.0000
vn -0.7101 -0.7041 -0.0000
vn -0.8333 0.5528 -0.0000
vn -0.5598 -0.8286 -0.0000
vn -0.9248 0.3805 -0.0000
vn -0.3879 -0.9217 -0.0000
vn -0.6965 0.7041 -0.1385
vn -0.6965 -0.7041 -0.1385
vn -0.8173 0.5528 -0.1626
vn -0.5490 -0.8286 -0.1092
vn -0.9070 0.3805 -0.1804
vn -0.3804 -0.9217 -0.0757
vn -0.9622 0.1939 -0.1914
vn -0.1971 -0.9796 -0.0392
vn -0.9808 -0.0000 -0.1951
vn -0.1971 0.9796 -0.0392
vn -0.9622 -0.1939 -0.1914
vn -0.3804 0.9217 -0.0757
vn -0.9070 -0.3805 -0.1804
vn -0.5490 0.8286 -0.1092
vn -0.8173 -0.5528 -0.1626
vn -0.9063 0.1939 -0.3754
vn -0.9239 -0.0000 -0.3827
vn -0.1857 0.9796 -0.0769
vn -0.1857 -0.9796 -0.0769
vn -0.9063 -0.1939 -0.3754
vn -0.3584 0.9217 -0.1484
vn -0.8544 -0.3805 -0.3539
vn -0.5172 0.8286 -0.2142
vn -0.7699 -0.5528 -0.3189
vn -0.6561 0.7041 -0.2718
vn -0.6561 -0.7041 -0.2718
vn -0.7699 0.5528 -0.3189
vn -0.5172 -0.8286 -0.2142
vn -0.8544 0.3805 -0.3539
vn -0.3584 -0.9217 -0.1484
vn -0.5905 -0.7041 -0.3945
vn -0.5905 0.7041 -0.3945
vn -0.6929 0.5528 -0.4630
vn -0.4654 -0.8286 -0.3110
vn -0.7689 0.3805 -0.5138
vn -0.3225 -0.9217 -0.2155
vn -0.8157 0.1939 -0.5450
vn -0.1671 -0.9796 -0.1117
vn -0.8315 -0.0000 -0.5556
vn -0.1671 0.9796 -0.1117
vn -0.8157 -0.1939 -0.5450
vn -0.3225 0.9217 -0.2155
vn -0.7689 -0.3805 -0.5138
vn -0.4654 0.8286 -0.3110
vn -0.6929 -0.5528 -0.4630
vn -0.1421 -0.9796 -0.1421
vn -0.6937 -0.1939 -0.6937
vn -0.2743 0.9217 -0.2743
vn -0.6539 -0.3805 -0.6539
vn -0.3958 0.8286 -0.3958
vn -0.5893 -0.5528 -0.5893
vn -0.5021 0.7041 -0.5021
vn -0.5021 -0.7041 -0.5021
vn -0.5893 0.5528 -0.5893
vn -0.3958 -0.8286 -0.3958
vn -0.6539 0.3805 -0.6539
vn -0.2743 -0.9217 -0.2743
vn -0.6937 0.1939 -0.6937
vn -0.7071 -0.0000 -0.7071
vn -0.1421 0.9796 -0.1421
vn -0.3945 -0.7041 -0.5905
vn -0.3110 -0.8286 -0.4654
vn -0.5138 0.3805 -0.7689
vn -0.2155 -0.9217 -0.3225
vn -0.5450 0.1939 -0.8157
vn -0.1117 -0.9796 -0.1671
vn -0.5556 -0.0000 -0.8315
vn -0.1117 0.9796 -0.1671
vn -0.5450 -0.1939 -0.8157
vn -0.2155 0.9217 -0.3225
vn -0.5138 -0.3805 -0.7689
vn -0.3110 0.8286 -0.4654
vn -0.4630 -0.5528 -0.6929
vn -0.3945 0.7041 -0.5905
vn -0.4630 0.5528 -0.6929
vn -0.0769 0.9796 -0.1857
vn -0.1484 0.9217 -0.3584
vn -0.3539 -0.3805 -0.8544
vn -0.2142 0.8286 -0.5172
vn -0.3189 -0.5528 -0.7699
vn -0.2718 0.7041 -0.6561
vn -0.2718 -0.7041 -0.6561
vn -0.3189 0.5528 -0.7699
vn -0.2142 -0.8286 -0.5172
vn -0.3539 0.3805 -0.8544
vn -0.1484 -0.9217 -0.3584
vn -0.3754 0.1939 -0.9063
vn -0.0769 -0.9796 -0.1857
vn -0.3827 -0.0000 -0.9239
vn -0.3754 -0.1939 -0.9063
vn -0.1804 0.3805 -0.9070
vn -0.0757 -0.9217 -0.3804
vn -0.1914 0.1939 -0.9622
vn -0.0392 -0.9796 -0.1971
vn -0.1951 -0.0000 -0.9808
vn -0.0392 0.9796 -0.1971
vn -0.1914 -0.1939 -0.9622
vn -0.0757 0.9217 -0.3804
vn -0.1804 -0.3805 -0.9070
vn -0.1092 0.8286 -0.5490
vn -0.1626 -0.5528 -0.8173
vn -0.1385 0.7041 -0.6965
vn -0.1385 -0.7041 -0.6965
vn -0.1626 0.5528 -0.8173
vn -0.1092 -0.8286 -0.5490
vt 0.750000 0.875000
vt 0.718750 0.937500
vt 0.718750 0.875000
vt 0.750000 0.437500
vt 0.718750 0.375000
vt 0.750000 0.375000
vt 0.750000 0.812500
vt 0.718750 0.812500
vt 0.718750 0.312500
vt 0.750000 0.312500
vt 0.750000 0.750000
vt 0.718750 0.750000
vt 0.718750 0.250000
vt 0.750000 0.250000
vt 0.750000 0.687500
vt 0.718750 0.687500
vt 0.718750 0.187500
vt 0.750000 0.187500
vt 0.750000 0.625000
vt 0.718750 0.625000
vt 0.718750 0.125000
vt 0.750000 0.125000
vt 0.750000 0.562500
vt 0.718750 0.562500
vt 0.718750 0.062500
vt 0.750000 0.062500
vt 0.718750 0.500000
vt 0.750000 0.500000
vt 0.750000 0.937500
vt 0.734375 1.000000
vt 0.734375 0.000000
vt 0.718750 0.437500
vt 0.703125 1.000000
vt 0.687500 0.937500
vt 0.703125 0.000000
vt 0.687500 0.062500
vt 0.687500 0.437500
vt 0.687500 0.875000
vt 0.687500 0.375000
vt 0.687500 0.812500
vt 0.687500 0.312500
vt 0.687500 0.750000
vt 0.687500 0.250000
vt 0.687500 0.687500
vt 0.687500 0.187500
vt 0.687500 0.625000
vt 0.687500 0.125000
vt 0.687500 0.562500
vt 0.687500 0.500000
vt 0.656250 0.687500
vt 0.656250 0.250000
vt 0.656250 0.187500
vt 0.656250 0.625000
vt 0.656250 0.125000
vt 0.656250 0.562500
vt 0.656250 0.062500
vt 0.656250 0.500000
vt 0.671875 1.000000
vt 0.656250 0.937500
vt 0.671875 0.000000
vt 0.656250 0.437500
vt 0.656250 0.875000
vt 0.656250 0.375000
vt 0.656250 0.812500
vt 0.656250 0.312500
vt 0.656250 0.750000
vt 0.625000 0.437500
vt 0.625000 0.875000
vt 0.625000 0.375000
vt 0.625000 0.812500
vt 0.625000 0.312500
vt 0.625000 0.750000
vt 0.625000 0.250000
vt 0.625000 0.687500
vt 0.625000 0.187500
vt 0.625000 0.625000
vt 0.625000 0.125000
vt 0.625000 0.562500
vt 0.625000 0.062500
vt 0.625000 0.500000
vt 0.640625 1.000000
vt 0.625000 0.937500
vt 0.640625 0.000000
vt 0.593750 0.187500
vt 0.593750 0.625000
vt 0.593750 0.125000
vt 0.593750 0.562500
vt 0.593750 0.062500
vt 0.593750 0.500000
vt 0.609375 1.000000
vt 0.593750 0.937500
vt 0.609375 0.000000
vt 0.593750 0.437500
vt 0.593750 0.875000
vt 0.593750 0.375000
vt 0.593750 0.812500
vt 0.593750 0.312500
vt 0.593750 0.750000
vt 0.593750 0.250000
vt 0.593750 0.687500
vt 0.562500 0.875000
vt 0.562500 0.375000
vt 0.562500 0.812500
vt 0.562500 0.312500
vt 0.562500 0.750000
vt 0.562500 0.250000
vt 0.562500 0.687500
vt 0.562500 0.187500
vt 0.562500 0.625000
vt 0.562500 0.125000
vt 0.562500 0.562500
vt 0.562500 0.062500
vt 0.562500 0.500000
vt 0.578125 1.000000
vt 0.562500 0.937500
vt 0.578125 0.000000
vt 0.562500 0.437500
vt 0.531250 0.625000
vt 0.531250 0.187500
vt 0.531250 0.125000
vt 0.531250 0.562500
vt 0.531250 0.062500
vt 0.531250 0.500000
vt 0.546875 1.000000
vt 0.531250 0.937500
vt 0.546875 0.000000
vt 0.531250 0.437500
vt 0.531250 0.875000
vt 0.531250 0.375000
vt 0.531250 0.812500
vt 0.531250 0.312500
vt 0.531250 0.750000
vt 0.531250 0.250000
vt 0.531250 0.687500
vt 0.500000 0.375000
vt 0.500000 0.812500
vt 0.500000 0.312500
vt 0.500000 0.750000
vt 0.500000 0.250000
vt 0.500000 0.687500
vt 0.500000 0.187500
vt 0.500000 0.625000
vt 0.500000 0.125000
vt 0.500000 0.562500
vt 0.500000 0.062500
vt 0.500000 0.500000
vt 0.515625 1.000000
vt 0.500000 0.937500
vt 0.515625 0.000000
vt 0.500000 0.437500
vt 0.500000 0.875000
vt 0.468750 0.125000
vt 0.468750 0.625000
vt 0.468750 0.562500
vt 0.468750 0.062500
vt 0.468750 0.500000
vt 0.484375 1.000000
vt 0.468750 0.937500
vt 0.484375 0.000000
vt 0.468750 0.437500
vt 0.468750 0.875000
vt 0.468750 0.375000
vt 0.468750 0.812500
vt 0.468750 0.312500
vt 0.468750 0.750000
vt 0.468750 0.250000
vt 0.468750 0.687500
vt 0.468750 0.187500
vt 0.437500 0.375000
vt 0.437500 0.312500
vt 0.437500 0.750000
vt 0.437500 0.250000
vt 0.437500 0.687500
vt 0.437500 0.187500
vt 0.437500 0.625000
vt 0.437500 0.125000
vt 0.437500 0.562500
vt 0.437500 0.062500
vt 0.437500 0.500000
vt 0.453125 1.000000
vt 0.437500 0.937500
vt 0.453125 0.000000
vt 0.437500 0.437500
vt 0.437500 0.875000
vt 0.437500 0.812500
vt 0.406250 0.062500
vt 0.406250 0.562500
vt 0.406250 0.500000
vt 0.421875 1.000000
vt 0.406250 0.937500
vt 0.421875 0.000000
vt 0.406250 0.437500
vt 0.406250 0.875000
vt 0.406250 0.375000
vt 0.406250 0.812500
vt 0.406250 0.312500
vt 0.406250 0.750000
vt 0.406250 0.250000
vt 0.406250 0.687500
vt 0.406250 0.187500
vt 0.406250 0.625000
vt 0.406250 0.125000
vt 0.375000 0.750000
vt 0.375000 0.250000
vt 0.375000 0.687500
vt 0.375000 0.187500
vt 0.375000 0.625000
vt 0.375000 0.125000
vt 0.375000 0.562500
vt 0.375000 0.062500
vt 0.375000 0.500000
vt 0.390625 1.000000
vt 0.375000 0.937500
vt 0.390625 0.000000
vt 0.375000 0.437500
vt 0.375000 0.875000
vt 0.375000 0.375000
vt 0.375000 0.812500
vt 0.375000 0.312500
vt 0.343750 0.562500
vt 0.343750 0.500000
vt 0.359375 1.000000
vt 0.343750 0.937500
vt 0.359375 0.000000
vt 0.343750 0.062500
vt 0.343750 0.437500
vt 0.343750 0.875000
vt 0.343750 0.375000
vt 0.343750 0.812500
vt 0.343750 0.312500
vt 0.343750 0.750000
vt 0.343750 0.250000
vt 0.343750 0.687500
vt 0.343750 0.187500
vt 0.343750 0.625000
vt 0.343750 0.125000
vt 0.312500 0.250000
vt 0.312500 0.750000
vt 0.312500 0.687500
vt 0.312500 0.187500
vt 0.312500 0.625000
vt 0.312500 0.125000
vt 0.312500 0.562500
vt 0.312500 0.062500
vt 0.312500 0.500000
vt 0.328125 1.000000
vt 0.312500 0.937500
vt 0.328125 0.000000
vt 0.312500 0.437500
vt 0.312500 0.875000
vt 0.312500 0.375000
vt 0.312500 0.812500
vt 0.312500 0.312500
vt 0.296875 1.000000
vt 0.281250 0.937500
vt 0.296875 0.000000
vt 0.281250 0.062500
vt 0.281250 0.437500
vt 0.281250 0.875000
vt 0.281250 0.375000
vt 0.281250 0.812500
vt 0.281250 0.312500
vt 0.281250 0.750000
vt 0.281250 0.250000
vt 0.281250 0.687500
vt 0.281250 0.187500
vt 0.281250 0.625000
vt 0.281250 0.125000
vt 0.281250 0.562500
vt 0.281250 0.500000
vt 0.250000 0.750000
vt 0.250000 0.687500
vt 0.250000 0.250000
vt 0.250000 0.187500
vt 0.250000 0.625000
vt 0.250000 0.125000
vt 0.250000 0.562500
vt 0.250000 0.062500
vt 0.250000 0.500000
vt 0.265625 1.000000
vt 0.250000 0.937500
vt 0.265625 0.000000
vt 0.250000 0.437500
vt 0.250000 0.875000
vt 0.250000 0.375000
vt 0.250000 0.812500
vt 0.250000 0.312500
vt 0.218750 0.437500
vt 0.218750 0.875000
vt 0.218750 0.375000
vt 0.218750 0.812500
vt 0.218750 0.312500
vt 0.218750 0.750000
vt 0.218750 0.250000
vt 0.218750 0.687500
vt 0.218750 0.187500
vt 0.218750 0.625000
vt 0.218750 0.125000
vt 0.218750 0.562500
vt 0.218750 0.062500
vt 0.218750 0.500000
vt 0.234375 1.000000
vt 0.218750 0.937500
vt 0.234375 0.000000
vt 0.187500 0.250000
vt 0.187500 0.187500
vt 0.187500 0.625000
vt 0.187500 0.125000
vt 0.187500 0.562500
vt 0.187500 0.062500
vt 0.187500 0.500000
vt 0.203125 1.000000
vt 0.187500 0.937500
vt 0.203125 0.000000
vt 0.187500 0.437500
vt 0.187500 0.875000
vt 0.187500 0.375000
vt 0.187500 0.812500
vt 0.187500 0.312500
vt 0.187500 0.750000
vt 0.187500 0.687500
vt 0.156250 0.375000
vt 0.156250 0.812500
vt 0.156250 0.312500
vt 0.156250 0.750000
vt 0.156250 0.250000
vt 0.156250 0.687500
vt 0.156250 0.187500
vt 0.156250 0.625000
vt 0.156250 0.125000
vt 0.156250 0.562500
vt 0.156250 0.062500
vt 0.156250 0.500000
vt 0.171875 1.000000
vt 0.156250 0.937500
vt 0.171875 0.000000
vt 0.156250 0.437500
vt 0.156250 0.875000
vt 0.125000 0.125000
vt 0.125000 0.625000
vt 0.125000 0.562500
vt 0.125000 0.062500
vt 0.125000 0.500000
vt 0.140625 1.000000
vt 0.125000 0.937500
vt 0.140625 0.000000
vt 0.125000 0.437500
vt 0.125000 0.875000
vt 0.125000 0.375000
vt 0.125000 0.812500
vt 0.125000 0.312500
vt 0.125000 0.750000
vt 0.125000 0.250000
vt 0.125000 0.687500
vt 0.125000 0.187500
vt 0.093750 0.812500
vt 0.093750 0.375000
vt 0.093750 0.312500
vt 0.093750 0.750000
vt 0.093750 0.250000
vt 0.093750 0.687500
vt 0.093750 0.187500
vt 0.093750 0.625000
vt 0.093750 0.125000
vt 0.093750 0.562500
vt 0.093750 0.062500
vt 0.093750 0.500000
vt 0.109375 1.000000
vt 0.093750 0.937500
vt 0.109375 0.000000
vt 0.093750 0.437500
vt 0.093750 0.875000
vt 0.062500 0.625000
vt 0.062500 0.562500
vt 0.062500 0.062500
vt 0.062500 0.500000
vt 0.078125 1.000000
vt 0.062500 0.937500
vt 0.078125 0.000000
vt 0.062500 0.437500
vt 0.062500 0.875000
vt 0.062500 0.375000
vt 0.062500 0.812500
vt 0.062500 0.312500
vt 0.062500 0.750000
vt 0.062500 0.250000
vt 0.062500 0.687500
vt 0.062500 0.187500
vt 0.062500 0.125000
vt 0.031250 0.375000
vt 0.031250 0.312500
vt 0.031250 0.750000
vt 0.031250 0.250000
vt 0.031250 0.687500
vt 0.031250 0.187500
vt 0.031250 0.625000
vt 0.031250 0.125000
vt 0.031250 0.562500
vt 0.031250 0.062500
vt 0.031250 0.500000
vt 0.046875 1.000000
vt 0.031250 0.937500
vt 0.046875 0.000000
vt 0.031250 0.437500
vt 0.031250 0.875000
vt 0.031250 0.812500
vt 0.000000 0.062500
vt 0.000000 0.562500
vt 0.000000 0.500000
vt 0.015625 1.000000
vt 0.000000 0.937500
vt 0.015625 0.000000
vt 0.000000 0.437500
vt 0.000000 0.875000
vt 0.000000 0.375000
vt 0.000000 0.812500
vt 0.000000 0.312500
vt 0.000000 0.750000
vt 0.000000 0.250000
vt 0.000000 0.687500
vt 0.000000 0.187500
vt 0.000000 0.625000
vt 0.000000 0.125000
vt 1.000000 0.812500
vt 0.968750 0.750000
vt 1.000000 0.750000
vt 1.000000 0.312500
vt 0.968750 0.250000
vt 1.000000 0.250000
vt 1.000000 0.687500
vt 0.968750 0.687500
vt 1.000000 0.187500
vt 0.968750 0.187500
vt 0.968750 0.625000
vt 1.000000 0.625000
vt 0.968750 0.125000
vt 1.000000 0.125000
vt 1.000000 0.562500
vt 0.968750 0.562500
vt 0.968750 0.062500
vt 1.000000 0.062500
vt 1.000000 0.500000
vt 0.968750 0.500000
vt 1.000000 0.937500
vt 0.984375 1.000000
vt 0.968750 0.937500
vt 0.984375 0.000000
vt 0.968750 0.437500
vt 1.000000 0.437500
vt 0.968750 0.875000
vt 1.000000 0.875000
vt 0.968750 0.375000
vt 1.000000 0.375000
vt 0.968750 0.812500
vt 0.968750 0.312500
vt 0.937500 0.562500
vt 0.937500 0.500000
vt 0.953125 1.000000
vt 0.937500 0.937500
vt 0.953125 0.000000
vt 0.937500 0.062500
vt 0.937500 0.437500
vt 0.937500 0.875000
vt 0.937500 0.375000
vt 0.937500 0.812500
vt 0.937500 0.312500
vt 0.937500 0.750000
vt 0.937500 0.250000
vt 0.937500 0.687500
vt 0.937500 0.187500
vt 0.937500 0.625000
vt 0.937500 0.125000
vt 0.906250 0.250000
vt 0.906250 0.750000
vt 0.906250 0.687500
vt 0.906250 0.187500
vt 0.906250 0.625000
vt 0.906250 0.125000
vt 0.906250 0.562500
vt 0.906250 0.062500
vt 0.906250 0.500000
vt 0.921875 1.000000
vt 0.906250 0.937500
vt 0.921875 0.000000
vt 0.906250 0.437500
vt 0.906250 0.875000
vt 0.906250 0.375000
vt 0.906250 0.812500
vt 0.906250 0.312500
vt 0.890625 0.000000
vt 0.875000 0.062500
vt 0.875000 0.437500
vt 0.875000 0.875000
vt 0.875000 0.375000
vt 0.875000 0.812500
vt 0.875000 0.312500
vt 0.875000 0.750000
vt 0.875000 0.250000
vt 0.875000 0.687500
vt 0.875000 0.187500
vt 0.875000 0.625000
vt 0.875000 0.125000
vt 0.875000 0.562500
vt 0.875000 0.500000
vt 0.890625 1.000000
vt 0.875000 0.937500
vt 0.843750 0.250000
vt 0.843750 0.187500
vt 0.843750 0.625000
vt 0.843750 0.125000
vt 0.843750 0.562500
vt 0.843750 0.062500
vt 0.843750 0.500000
vt 0.859375 1.000000
vt 0.843750 0.937500
vt 0.859375 0.000000
vt 0.843750 0.437500
vt 0.843750 0.875000
vt 0.843750 0.375000
vt 0.843750 0.812500
vt 0.843750 0.312500
vt 0.843750 0.750000
vt 0.843750 0.687500
vt 0.812500 0.937500
vt 0.812500 0.875000
vt 0.812500 0.375000
vt 0.812500 0.812500
vt 0.812500 0.312500
vt 0.812500 0.750000
vt 0.812500 0.250000
vt 0.812500 0.687500
vt 0.812500 0.187500
vt 0.812500 0.625000
vt 0.812500 0.125000
vt 0.812500 0.562500
vt 0.812500 0.062500
vt 0.812500 0.500000
vt 0.828125 1.000000
vt 0.828125 0.000000
vt 0.812500 0.437500
vt 0.781250 0.625000
vt 0.781250 0.125000
vt 0.781250 0.562500
vt 0.781250 0.062500
vt 0.781250 0.500000
vt 0.796875 1.000000
vt 0.781250 0.937500
vt 0.796875 0.000000
vt 0.781250 0.437500
vt 0.781250 0.875000
vt 0.781250 0.375000
vt 0.781250 0.812500
vt 0.781250 0.312500
vt 0.781250 0.750000
vt 0.781250 0.250000
vt 0.781250 0.687500
vt 0.781250 0.187500
vt 0.765625 1.000000
vt 0.765625 0.000000
s 1
f 475/1/1 7/2/2 8/3/3
f 5/4/4 16/5/5 478/6/6
f 1/7/7 8/3/3 9/8/8
f 478/6/6 17/9/9 6/10/10
f 476/11/11 9/8/8 10/12/12
f 6/10/10 18/13/13 479/14/14
f 2/15/15 10/12/12 11/16/16
f 479/14/14 19/17/17 480/18/18
f 477/19/19 11/16/16 12/20/20
f 480/18/18 20/21/21 481/22/22
f 3/23/23 12/20/20 13/24/24
f 481/22/22 21/25/25 482/26/26
f 3/23/23 14/27/27 4/28/28
f 474/29/29 82/30/30 7/2/2
f 308/31/31 482/26/26 21/25/25
f 4/28/28 15/32/32 5/4/4
f 7/2/2 82/33/30 22/34/33
f 308/35/31 21/25/25 36/36/34
f 14/27/27 30/37/35 15/32/32
f 7/2/2 23/38/36 8/3/3
f 15/32/32 31/39/37 16/5/5
f 8/3/3 24/40/38 9/8/8
f 16/5/5 32/41/39 17/9/9
f 9/8/8 25/42/40 10/12/12
f 17/9/9 33/43/41 18/13/13
f 10/12/12 26/44/42 11/16/16
f 19/17/17 33/43/41 34/45/43
f 11/16/16 27/46/44 12/20/20
f 20/21/21 34/45/43 35/47/45
f 13/24/24 27/46/44 28/48/46
f 20/21/21 36/36/34 21/25/25
f 13/24/24 29/49/47 14/27/27
f 25/42/40 41/50/48 26/44/42
f 34/45/43 48/51/49 49/52/50
f 26/44/42 42/53/51 27/46/44
f 34/45/43 50/54/52 35/47/45
f 27/46/44 43/55/53 28/48/46
f 35/47/45 51/56/54 36/36/34
f 28/48/46 44/57/55 29/49/47
f 22/34/33 82/58/30 37/59/56
f 308/60/31 36/36/34 51/56/54
f 30/37/35 44/57/55 45/61/57
f 22/34/33 38/62/58 23/38/36
f 30/37/35 46/63/59 31/39/37
f 23/38/36 39/64/60 24/40/38
f 32/41/39 46/63/59 47/65/61
f 24/40/38 40/66/62 25/42/40
f 33/43/41 47/65/61 48/51/49
f 44/57/55 60/67/63 45/61/57
f 37/59/56 53/68/64 38/62/58
f 45/61/57 61/69/65 46/63/59
f 38/62/58 54/70/66 39/64/60
f 47/65/61 61/69/65 62/71/67
f 39/64/60 55/72/68 40/66/62
f 47/65/61 63/73/69 48/51/49
f 40/66/62 56/74/70 41/50/48
f 48/51/49 64/75/71 49/52/50
f 41/50/48 57/76/72 42/53/51
f 49/52/50 65/77/73 50/54/52
f 43/55/53 57/76/72 58/78/74
f 50/54/52 66/79/75 51/56/54
f 44/57/55 58/78/74 59/80/76
f 37/59/56 82/81/30 52/82/77
f 308/83/31 51/56/54 66/79/75
f 63/73/69 79/84/78 64/75/71
f 56/74/70 72/85/79 57/76/72
f 65/77/73 79/84/78 80/86/80
f 58/78/74 72/85/79 73/87/81
f 65/77/73 81/88/82 66/79/75
f 59/80/76 73/87/81 74/89/83
f 52/82/77 82/90/30 67/91/84
f 308/92/31 66/79/75 81/88/82
f 59/80/76 75/93/85 60/67/63
f 52/82/77 68/94/86 53/68/64
f 60/67/63 76/95/87 61/69/65
f 53/68/64 69/96/88 54/70/66
f 62/71/67 76/95/87 77/97/89
f 54/70/66 70/98/90 55/72/68
f 62/71/67 78/99/91 63/73/69
f 56/74/70 70/98/90 71/100/92
f 67/91/84 84/101/93 68/94/86
f 75/93/85 92/102/94 76/95/87
f 68/94/86 85/103/95 69/96/88
f 77/97/89 92/102/94 93/104/96
f 69/96/88 86/105/97 70/98/90
f 77/97/89 94/106/98 78/99/91
f 71/100/92 86/105/97 87/107/99
f 78/99/91 95/108/100 79/84/78
f 71/100/92 88/109/101 72/85/79
f 79/84/78 96/110/102 80/86/80
f 73/87/81 88/109/101 89/111/103
f 81/88/82 96/110/102 97/112/104
f 74/89/83 89/111/103 90/113/105
f 67/91/84 82/114/30 83/115/106
f 308/116/31 81/88/82 97/112/104
f 74/89/83 91/117/107 75/93/85
f 87/107/99 103/118/108 88/109/101
f 96/110/102 110/119/109 111/120/110
f 89/111/103 103/118/108 104/121/111
f 96/110/102 112/122/112 97/112/104
f 90/113/105 104/121/111 105/123/113
f 83/115/106 82/124/30 98/125/114
f 308/126/31 97/112/104 112/122/112
f 90/113/105 106/127/115 91/117/107
f 84/101/93 98/125/114 99/128/116
f 91/117/107 107/129/117 92/102/94
f 84/101/93 100/130/118 85/103/95
f 93/104/96 107/129/117 108/131/119
f 85/103/95 101/132/120 86/105/97
f 93/104/96 109/133/121 94/106/98
f 87/107/99 101/132/120 102/134/122
f 95/108/100 109/133/121 110/119/109
f 106/127/115 122/135/123 107/129/117
f 99/128/116 115/136/124 100/130/118
f 108/131/119 122/135/123 123/137/125
f 100/130/118 116/138/126 101/132/120
f 108/131/119 124/139/127 109/133/121
f 102/134/122 116/138/126 117/140/128
f 110/119/109 124/139/127 125/141/129
f 102/134/122 118/142/130 103/118/108
f 110/119/109 126/143/131 111/120/110
f 104/121/111 118/142/130 119/144/132
f 111/120/110 127/145/133 112/122/112
f 105/123/113 119/144/132 120/146/134
f 98/125/114 82/147/30 113/148/135
f 308/149/31 112/122/112 127/145/133
f 105/123/113 121/150/136 106/127/115
f 99/128/116 113/148/135 114/151/137
f 125/141/129 141/152/138 126/143/131
f 119/144/132 133/153/139 134/154/140
f 126/143/131 142/155/141 127/145/133
f 120/146/134 134/154/140 135/156/142
f 113/148/135 82/157/30 128/158/143
f 308/159/31 127/145/133 142/155/141
f 120/146/134 136/160/144 121/150/136
f 113/148/135 129/161/145 114/151/137
f 121/150/136 137/162/146 122/135/123
f 114/151/137 130/163/147 115/136/124
f 123/137/125 137/162/146 138/164/148
f 115/136/124 131/165/149 116/138/126
f 123/137/125 139/166/150 124/139/127
f 117/140/128 131/165/149 132/167/151
f 125/141/129 139/166/150 140/168/152
f 117/140/128 133/153/139 118/142/130
f 138/164/148 152/169/153 153/170/154
f 130/163/147 146/171/155 131/165/149
f 138/164/148 154/172/156 139/166/150
f 132/167/151 146/171/155 147/173/157
f 140/168/152 154/172/156 155/174/158
f 132/167/151 148/175/159 133/153/139
f 140/168/152 156/176/160 141/152/138
f 134/154/140 148/175/159 149/177/161
f 142/155/141 156/176/160 157/178/162
f 135/156/142 149/177/161 150/179/163
f 128/158/143 82/180/30 143/181/164
f 308/182/31 142/155/141 157/178/162
f 135/156/142 151/183/165 136/160/144
f 128/158/143 144/184/166 129/161/145
f 136/160/144 152/169/153 137/162/146
f 130/163/147 144/184/166 145/185/167
f 156/176/160 172/186/168 157/178/162
f 150/179/163 164/187/169 165/188/170
f 143/181/164 82/189/30 158/190/171
f 308/191/31 157/178/162 172/186/168
f 150/179/163 166/192/172 151/183/165
f 143/181/164 159/193/173 144/184/166
f 151/183/165 167/194/174 152/169/153
f 145/185/167 159/193/173 160/195/175
f 153/170/154 167/194/174 168/196/176
f 145/185/167 161/197/177 146/171/155
f 153/170/154 169/198/178 154/172/156
f 147/173/157 161/197/177 162/199/179
f 155/174/158 169/198/178 170/200/180
f 147/173/157 163/201/181 148/175/159
f 155/174/158 171/202/182 156/176/160
f 149/177/161 163/201/181 164/187/169
f 160/195/175 176/203/183 161/197/177
f 168/196/176 184/204/184 169/198/178
f 162/199/179 176/203/183 177/205/185
f 169/198/178 185/206/186 170/200/180
f 162/199/179 178/207/187 163/201/181
f 171/202/182 185/206/186 186/208/188
f 164/187/169 178/207/187 179/209/189
f 172/186/168 186/208/188 187/210/190
f 165/188/170 179/209/189 180/211/191
f 158/190/171 82/212/30 173/213/192
f 308/214/31 172/186/168 187/210/190
f 165/188/170 181/215/193 166/192/172
f 158/190/171 174/216/194 159/193/173
f 166/192/172 182/217/195 167/194/174
f 159/193/173 175/218/196 160/195/175
f 168/196/176 182/217/195 183/219/197
f 180/211/191 194/220/198 195/221/199
f 173/213/192 82/222/30 188/223/200
f 308/224/31 187/210/190 202/225/201
f 180/211/191 196/226/202 181/215/193
f 174/216/194 188/223/200 189/227/203
f 181/215/193 197/228/204 182/217/195
f 175/218/196 189/227/203 190/229/205
f 183/219/197 197/228/204 198/230/206
f 175/218/196 191/231/207 176/203/183
f 183/219/197 199/232/208 184/204/184
f 177/205/185 191/231/207 192/233/209
f 185/206/186 199/232/208 200/234/210
f 177/205/185 193/235/211 178/207/187
f 185/206/186 201/236/212 186/208/188
f 179/209/189 193/235/211 194/220/198
f 186/208/188 202/225/201 187/210/190
f 198/230/206 214/237/213 199/232/208
f 192/233/209 206/238/214 207/239/215
f 200/234/210 214/237/213 215/240/216
f 192/233/209 208/241/217 193/235/211
f 200/234/210 216/242/218 201/236/212
f 194/220/198 208/241/217 209/243/219
f 201/236/212 217/244/220 202/225/201
f 195/221/199 209/243/219 210/245/221
f 188/223/200 82/246/30 203/247/222
f 308/248/31 202/225/201 217/244/220
f 195/221/199 211/249/223 196/226/202
f 188/223/200 204/250/224 189/227/203
f 196/226/202 212/251/225 197/228/204
f 189/227/203 205/252/226 190/229/205
f 198/230/206 212/251/225 213/253/227
f 190/229/205 206/238/214 191/231/207
f 203/247/222 82/254/30 218/255/228
f 308/256/31 217/244/220 232/257/229
f 210/245/221 226/258/230 211/249/223
f 203/247/222 219/259/231 204/250/224
f 211/249/223 227/260/232 212/251/225
f 204/250/224 220/261/233 205/252/226
f 213/253/227 227/260/232 228/262/234
f 205/252/226 221/263/235 206/238/214
f 213/253/227 229/264/236 214/237/213
f 207/239/215 221/263/235 222/265/237
f 215/240/216 229/264/236 230/266/238
f 207/239/215 223/267/239 208/241/217
f 215/240/216 231/268/240 216/242/218
f 209/243/219 223/267/239 224/269/241
f 216/242/218 232/257/229 217/244/220
f 210/245/221 224/269/241 225/270/242
f 222/265/237 236/271/243 237/272/244
f 230/266/238 244/273/245 245/274/246
f 222/265/237 238/275/247 223/267/239
f 230/266/238 246/276/248 231/268/240
f 224/269/241 238/275/247 239/277/249
f 232/257/229 246/276/248 247/278/250
f 225/270/242 239/277/249 240/279/251
f 218/255/228 82/280/30 233/281/252
f 308/282/31 232/257/229 247/278/250
f 225/270/242 241/283/253 226/258/230
f 218/255/228 234/284/254 219/259/231
f 226/258/230 242/285/255 227/260/232
f 220/261/233 234/284/254 235/286/256
f 228/262/234 242/285/255 243/287/257
f 220/261/233 236/271/243 221/263/235
f 228/262/234 244/273/245 229/264/236
f 240/279/251 256/288/258 241/283/253
f 233/281/252 249/289/259 234/284/254
f 241/283/253 257/290/260 242/285/255
f 234/284/254 250/291/261 235/286/256
f 243/287/257 257/290/260 258/292/262
f 235/286/256 251/293/263 236/271/243
f 243/287/257 259/294/264 244/273/245
f 237/272/244 251/293/263 252/295/265
f 245/274/246 259/294/264 260/296/266
f 237/272/244 253/297/267 238/275/247
f 245/274/246 261/298/268 246/276/248
f 239/277/249 253/297/267 254/299/269
f 246/276/248 262/300/270 247/278/250
f 240/279/251 254/299/269 255/301/271
f 233/281/252 82/302/30 248/303/272
f 308/304/31 247/278/250 262/300/270
f 260/296/266 274/305/273 275/306/274
f 252/295/265 268/307/275 253/297/267
f 260/296/266 276/308/276 261/298/268
f 254/299/269 268/307/275 269/309/277
f 261/298/268 277/310/278 262/300/270
f 255/301/271 269/309/277 270/311/279
f 248/303/272 82/312/30 263/313/280
f 308/314/31 262/300/270 277/310/278
f 255/301/271 271/315/281 256/288/258
f 249/289/259 263/313/280 264/316/282
f 256/288/258 272/317/283 257/290/260
f 249/289/259 265/318/284 250/291/261
f 258/292/262 272/317/283 273/319/285
f 250/291/261 266/320/286 251/293/263
f 258/292/262 274/305/273 259/294/264
f 252/295/265 266/320/286 267/321/287
f 271/315/281 287/322/288 272/317/283
f 264/316/282 280/323/289 265/318/284
f 273/319/285 287/322/288 288/324/290
f 265/318/284 281/325/291 266/320/286
f 273/319/285 289/326/292 274/305/273
f 267/321/287 281/325/291 282/327/293
f 275/306/274 289/326/292 290/328/294
f 267/321/287 283/329/295 268/307/275
f 275/306/274 291/330/296 276/308/276
f 269/309/277 283/329/295 284/331/297
f 277/310/278 291/330/296 292/332/298
f 270/311/279 284/331/297 285/333/299
f 263/313/280 82/334/30 278/335/300
f 308/336/31 277/310/278 292/332/298
f 270/311/279 286/337/301 271/315/281
f 264/316/282 278/335/300 279/338/302
f 290/328/294 306/339/303 291/330/296
f 284/331/297 298/340/304 299/341/305
f 292/332/298 306/339/303 307/342/306
f 285/333/299 299/341/305 300/343/307
f 278/335/300 82/344/30 293/345/308
f 308/346/31 292/332/298 307/342/306
f 285/333/299 301/347/309 286/337/301
f 278/335/300 294/348/310 279/338/302
f 286/337/301 302/349/311 287/322/288
f 279/338/302 295/350/312 280/323/289
f 288/324/290 302/349/311 303/351/313
f 280/323/289 296/352/314 281/325/291
f 288/324/290 304/353/315 289/326/292
f 282/327/293 296/352/314 297/354/316
f 290/328/294 304/353/315 305/355/317
f 282/327/293 298/340/304 283/329/295
f 294/348/310 311/356/318 295/350/312
f 303/351/313 318/357/319 319/358/320
f 295/350/312 312/359/321 296/352/314
f 303/351/313 320/360/322 304/353/315
f 297/354/316 312/359/321 313/361/323
f 305/355/317 320/360/322 321/362/324
f 297/354/316 314/363/325 298/340/304
f 305/355/317 322/364/326 306/339/303
f 299/341/305 314/363/325 315/365/327
f 306/339/303 323/366/328 307/342/306
f 300/343/307 315/365/327 316/367/329
f 293/345/308 82/368/30 309/369/330
f 308/370/31 307/342/306 323/366/328
f 300/343/307 317/371/331 301/347/309
f 293/345/308 310/372/332 294/348/310
f 301/347/309 318/357/319 302/349/311
f 315/365/327 329/373/333 330/374/334
f 322/364/326 338/375/335 323/366/328
f 316/367/329 330/374/334 331/376/336
f 309/369/330 82/377/30 324/378/337
f 308/379/31 323/366/328 338/375/335
f 316/367/329 332/380/338 317/371/331
f 309/369/330 325/381/339 310/372/332
f 317/371/331 333/382/340 318/357/319
f 310/372/332 326/383/341 311/356/318
f 319/358/320 333/382/340 334/384/342
f 311/356/318 327/385/343 312/359/321
f 319/358/320 335/386/344 320/360/322
f 312/359/321 328/387/345 313/361/323
f 321/362/324 335/386/344 336/388/346
f 313/361/323 329/373/333 314/363/325
f 321/362/324 337/389/347 322/364/326
f 334/384/342 348/390/348 349/391/349
f 326/383/341 342/392/350 327/385/343
f 334/384/342 350/393/351 335/386/344
f 328/387/345 342/392/350 343/394/352
f 336/388/346 350/393/351 351/395/353
f 328/387/345 344/396/354 329/373/333
f 336/388/346 352/397/355 337/389/347
f 330/374/334 344/396/354 345/398/356
f 337/389/347 353/399/357 338/375/335
f 331/376/336 345/398/356 346/400/358
f 324/378/337 82/401/30 339/402/359
f 308/403/31 338/375/335 353/399/357
f 331/376/336 347/404/360 332/380/338
f 324/378/337 340/405/361 325/381/339
f 332/380/338 348/390/348 333/382/340
f 325/381/339 341/406/362 326/383/341
f 352/397/355 368/407/363 353/399/357
f 346/400/358 360/408/364 361/409/365
f 339/402/359 82/410/30 354/411/366
f 308/412/31 353/399/357 368/407/363
f 346/400/358 362/413/367 347/404/360
f 339/402/359 355/414/368 340/405/361
f 347/404/360 363/415/369 348/390/348
f 341/406/362 355/414/368 356/416/370
f 349/391/349 363/415/369 364/417/371
f 341/406/362 357/418/372 342/392/350
f 349/391/349 365/419/373 350/393/351
f 343/394/352 357/418/372 358/420/374
f 351/395/353 365/419/373 366/421/375
f 343/394/352 359/422/376 344/396/354
f 351/395/353 367/423/377 352/397/355
f 345/398/356 359/422/376 360/408/364
f 356/424/370 372/425/378 357/426/372
f 364/427/371 380/428/379 365/429/373
f 358/430/374 372/425/378 373/431/380
f 366/432/375 380/428/379 381/433/381
f 358/430/374 374/434/382 359/435/376
f 366/432/375 382/436/383 367/437/377
f 360/438/364 374/434/382 375/439/384
f 367/437/377 383/440/385 368/441/363
f 361/442/365 375/439/384 376/443/386
f 354/444/366 82/445/30 369/446/387
f 308/447/31 368/441/363 383/440/385
f 361/442/365 377/448/388 362/449/367
f 354/444/366 370/450/389 355/451/368
f 362/449/367 378/452/390 363/453/369
f 356/424/370 370/450/389 371/454/391
f 364/427/371 378/452/390 379/455/392
f 376/443/386 390/456/393 391/457/394
f 369/446/387 82/458/30 384/459/395
f 308/460/31 383/440/385 398/461/396
f 376/443/386 392/462/397 377/448/388
f 369/446/387 385/463/398 370/450/389
f 377/448/388 393/464/399 378/452/390
f 371/454/391 385/463/398 386/465/400
f 379/455/392 393/464/399 394/466/401
f 371/454/391 387/467/402 372/425/378
f 379/455/392 395/468/403 380/428/379
f 373/431/380 387/467/402 388/469/404
f 381/433/381 395/468/403 396/470/405
f 373/431/380 389/471/406 374/434/382
f 381/433/381 397/472/407 382/436/383
f 375/439/384 389/471/406 390/456/393
f 382/436/383 398/461/396 383/440/385
f 394/466/401 410/473/408 395/468/403
f 388/469/404 402/474/409 403/475/410
f 396/470/405 410/473/408 411/476/411
f 388/469/404 404/477/412 389/471/406
f 397/472/407 411/476/411 412/478/413
f 390/456/393 404/477/412 405/479/414
f 397/472/407 413/480/415 398/461/396
f 391/457/394 405/479/414 406/481/416
f 384/459/395 82/482/30 399/483/417
f 308/484/31 398/461/396 413/480/415
f 391/457/394 407/485/418 392/462/397
f 385/463/398 399/483/417 400/486/419
f 392/462/397 408/487/420 393/464/399
f 385/463/398 401/488/421 386/465/400
f 394/466/401 408/487/420 409/489/422
f 386/465/400 402/474/409 387/467/402
f 308/490/31 413/480/415 428/491/423
f 406/481/416 422/492/424 407/485/418
f 399/483/417 415/493/425 400/486/419
f 407/485/418 423/494/426 408/487/420
f 401/488/421 415/493/425 416/495/427
f 409/489/422 423/494/426 424/496/428
f 401/488/421 417/497/429 402/474/409
f 409/489/422 425/498/430 410/473/408
f 403/475/410 417/497/429 418/499/431
f 411/476/411 425/498/430 426/500/432
f 403/475/410 419/501/433 404/477/412
f 411/476/411 427/502/434 412/478/413
f 405/479/414 419/501/433 420/503/435
f 412/478/413 428/491/423 413/480/415
f 406/481/416 420/503/435 421/504/436
f 399/483/417 82/505/30 414/506/437
f 426/500/432 440/507/438 441/508/439
f 418/499/431 434/509/440 419/501/433
f 426/500/432 442/510/441 427/502/434
f 420/503/435 434/509/440 435/511/442
f 427/502/434 443/512/443 428/491/423
f 421/504/436 435/511/442 436/513/444
f 414/506/437 82/514/30 429/515/445
f 308/516/31 428/491/423 443/512/443
f 421/504/436 437/517/446 422/492/424
f 414/506/437 430/518/447 415/493/425
f 422/492/424 438/519/448 423/494/426
f 416/495/427 430/518/447 431/520/449
f 424/496/428 438/519/448 439/521/450
f 416/495/427 432/522/451 417/497/429
f 424/496/428 440/507/438 425/498/430
f 418/499/431 432/522/451 433/523/452
f 430/518/447 444/524/453 445/525/454
f 437/517/446 453/526/455 438/519/448
f 430/518/447 446/527/456 431/520/449
f 439/521/450 453/526/455 454/528/457
f 431/520/449 447/529/458 432/522/451
f 439/521/450 455/530/459 440/507/438
f 433/523/452 447/529/458 448/531/460
f 441/508/439 455/530/459 456/532/461
f 433/523/452 449/533/462 434/509/440
f 441/508/439 457/534/463 442/510/441
f 435/511/442 449/533/462 450/535/464
f 442/510/441 458/536/465 443/512/443
f 436/513/444 450/535/464 451/537/466
f 429/515/445 82/538/30 444/524/453
f 308/539/31 443/512/443 458/536/465
f 436/513/444 452/540/467 437/517/446
f 448/531/460 464/541/468 449/533/462
f 456/532/461 472/542/469 457/534/463
f 450/535/464 464/541/468 465/543/470
f 458/536/465 472/542/469 473/544/471
f 451/537/466 465/543/470 466/545/472
f 444/524/453 82/546/30 459/547/473
f 308/548/31 458/536/465 473/544/471
f 451/537/466 467/549/474 452/540/467
f 444/524/453 460/550/475 445/525/454
f 452/540/467 468/551/476 453/526/455
f 446/527/456 460/550/475 461/552/477
f 454/528/457 468/551/476 469/553/478
f 446/527/456 462/554/479 447/529/458
f 454/528/457 470/555/480 455/530/459
f 448/531/460 462/554/479 463/556/481
f 456/532/461 470/555/480 471/557/482
f 467/549/474 478/6/6 468/551/476
f 461/552/477 475/1/1 1/7/7
f 468/551/476 6/10/10 469/553/478
f 462/554/479 1/7/7 476/11/11
f 469/553/478 479/14/14 470/555/480
f 463/556/481 476/11/11 2/15/15
f 471/557/482 479/14/14 480/18/18
f 464/541/468 2/15/15 477/19/19
f 471/557/482 481/22/22 472/542/469
f 465/543/470 477/19/19 3/23/23
f 472/542/469 482/26/26 473/544/471
f 466/545/472 3/23/23 4/28/28
f 459/547/473 82/558/30 474/29/29
f 308/559/31 473/544/471 482/26/26
f 466/545/472 5/4/4 467/549/474
f 460/550/475 474/29/29 475/1/1
f 475/1/1 474/29/29 7/2/2
f 5/4/4 15/32/32 16/5/5
f 1/7/7 475/1/1 8/3/3
f 478/6/6 16/5/5 17/9/9
f 476/11/11 1/7/7 9/8/8
f 6/10/10 17/9/9 18/13/13
f 2/15/15 476/11/11 10/12/12
f 479/14/14 18/13/13 19/17/17
f 477/19/19 2/15/15 11/16/16
f 480/18/18 19/17/17 20/21/21
f 3/23/23 477/19/19 12/20/20
f 481/22/22 20/21/21 21/25/25
f 3/23/23 13/24/24 14/27/27
f 4/28/28 14/27/27 15/32/32
f 14/27/27 29/49/47 30/37/35
f 7/2/2 22/34/33 23/38/36
f 15/32/32 30/37/35 31/39/37
f 8/3/3 23/38/36 24/40/38
f 16/5/5 31/39/37 32/41/39
f 9/8/8 24/40/38 25/42/40
f 17/9/9 32/41/39 33/43/41
f 10/12/12 25/42/40 26/44/42
f 19/17/17 18/13/13 33/43/41
f 11/16/16 26/44/42 27/46/44
f 20/21/21 19/17/17 34/45/43
f 13/24/24 12/20/20 27/46/44
f 20/21/21 35/47/45 36/36/34
f 13/24/24 28/48/46 29/49/47
f 25/42/40 40/66/62 41/50/48
f 34/45/43 33/43/41 48/51/49
f 26/44/42 41/50/48 42/53/51
f 34/45/43 49/52/50 50/54/52
f 27/46/44 42/53/51 43/55/53
f 35/47/45 50/54/52 51/56/54
f 28/48/46 43/55/53 44/57/55
f 30/37/35 29/49/47 44/57/55
f 22/34/33 37/59/56 38/62/58
f 30/37/35 45/61/57 46/63/59
f 23/38/36 38/62/58 39/64/60
f 32/41/39 31/39/37 46/63/59
f 24/40/38 39/64/60 40/66/62
f 33/43/41 32/41/39 47/65/61
f 44/57/55 59/80/76 60/67/63
f 37/59/56 52/82/77 53/68/64
f 45/61/57 60/67/63 61/69/65
f 38/62/58 53/68/64 54/70/66
f 47/65/61 46/63/59 61/69/65
f 39/64/60 54/70/66 55/72/68
f 47/65/61 62/71/67 63/73/69
f 40/66/62 55/72/68 56/74/70
f 48/51/49 63/73/69 64/75/71
f 41/50/48 56/74/70 57/76/72
f 49/52/50 64/75/71 65/77/73
f 43/55/53 42/53/51 57/76/72
f 50/54/52 65/77/73 66/79/75
f 44/57/55 43/55/53 58/78/74
f 63/73/69 78/99/91 79/84/78
f 56/74/70 71/100/92 72/85/79
f 65/77/73 64/75/71 79/84/78
f 58/78/74 57/76/72 72/85/79
f 65/77/73 80/86/80 81/88/82
f 59/80/76 58/78/74 73/87/81
f 59/80/76 74/89/83 75/93/85
f 52/82/77 67/91/84 68/94/86
f 60/67/63 75/93/85 76/95/87
f 53/68/64 68/94/86 69/96/88
f 62/71/67 61/69/65 76/95/87
f 54/70/66 69/96/88 70/98/90
f 62/71/67 77/97/89 78/99/91
f 56/74/70 55/72/68 70/98/90
f 67/91/84 83/115/106 84/101/93
f 75/93/85 91/117/107 92/102/94
f 68/94/86 84/101/93 85/103/95
f 77/97/89 76/95/87 92/102/94
f 69/96/88 85/103/95 86/105/97
f 77/97/89 93/104/96 94/106/98
f 71/100/92 70/98/90 86/105/97
f 78/99/91 94/106/98 95/108/100
f 71/100/92 87/107/99 88/109/101
f 79/84/78 95/108/100 96/110/102
f 73/87/81 72/85/79 88/109/101
f 81/88/82 80/86/80 96/110/102
f 74/89/83 73/87/81 89/111/103
f 74/89/83 90/113/105 91/117/107
f 87/107/99 102/134/122 103/118/108
f 96/110/102 95/108/100 110/119/109
f 89/111/103 88/109/101 103/118/108
f 96/110/102 111/120/110 112/122/112
f 90/113/105 89/111/103 104/121/111
f 90/113/105 105/123/113 106/127/115
f 84/101/93 83/115/106 98/125/114
f 91/117/107 106/127/115 107/129/117
f 84/101/93 99/128/116 100/130/118
f 93/104/96 92/102/94 107/129/117
f 85/103/95 100/130/118 101/132/120
f 93/104/96 108/131/119 109/133/121
f 87/107/99 86/105/97 101/132/120
f 95/108/100 94/106/98 109/133/121
f 106/127/115 121/150/136 122/135/123
f 99/128/116 114/151/137 115/136/124
f 108/131/119 107/129/117 122/135/123
f 100/130/118 115/136/124 116/138/126
f 108/131/119 123/137/125 124/139/127
f 102/134/122 101/132/120 116/138/126
f 110/119/109 109/133/121 124/139/127
f 102/134/122 117/140/128 118/142/130
f 110/119/109 125/141/129 126/143/131
f 104/121/111 103/118/108 118/142/130
f 111/120/110 126/143/131 127/145/133
f 105/123/113 104/121/111 119/144/132
f 105/123/113 120/146/134 121/150/136
f 99/128/116 98/125/114 113/148/135
f 125/141/129 140/168/152 141/152/138
f 119/144/132 118/142/130 133/153/139
f 126/143/131 141/152/138 142/155/141
f 120/146/134 119/144/132 134/154/140
f 120/146/134 135/156/142 136/160/144
f 113/148/135 128/158/143 129/161/145
f 121/150/136 136/160/144 137/162/146
f 114/151/137 129/161/145 130/163/147
f 123/137/125 122/135/123 137/162/146
f 115/136/124 130/163/147 131/165/149
f 123/137/125 138/164/148 139/166/150
f 117/140/128 116/138/126 131/165/149
f 125/141/129 124/139/127 139/166/150
f 117/140/128 132/167/151 133/153/139
f 138/164/148 137/162/146 152/169/153
f 130/163/147 145/185/167 146/171/155
f 138/164/148 153/170/154 154/172/156
f 132/167/151 131/165/149 146/171/155
f 140/168/152 139/166/150 154/172/156
f 132/167/151 147/173/157 148/175/159
f 140/168/152 155/174/158 156/176/160
f 134/154/140 133/153/139 148/175/159
f 142/155/141 141/152/138 156/176/160
f 135/156/142 134/154/140 149/177/161
f 135/156/142 150/179/163 151/183/165
f 128/158/143 143/181/164 144/184/166
f 136/160/144 151/183/165 152/169/153
f 130/163/147 129/161/145 144/184/166
f 156/176/160 171/202/182 172/186/168
f 150/179/163 149/177/161 164/187/169
f 150/179/163 165/188/170 166/192/172
f 143/181/164 158/190/171 159/193/173
f 151/183/165 166/192/172 167/194/174
f 145/185/167 144/184/166 159/193/173
f 153/170/154 152/169/153 167/194/174
f 145/185/167 160/195/175 161/197/177
f 153/170/154 168/196/176 169/198/178
f 147/173/157 146/171/155 161/197/177
f 155/174/158 154/172/156 169/198/178
f 147/173/157 162/199/179 163/201/181
f 155/174/158 170/200/180 171/202/182
f 149/177/161 148/175/159 163/201/181
f 160/195/175 175/218/196 176/203/183
f 168/196/176 183/219/197 184/204/184
f 162/199/179 161/197/177 176/203/183
f 169/198/178 184/204/184 185/206/186
f 162/199/179 177/205/185 178/207/187
f 171/202/182 170/200/180 185/206/186
f 164/187/169 163/201/181 178/207/187
f 172/186/168 171/202/182 186/208/188
f 165/188/170 164/187/169 179/209/189
f 165/188/170 180/211/191 181/215/193
f 158/190/171 173/213/192 174/216/194
f 166/192/172 181/215/193 182/217/195
f 159/193/173 174/216/194 175/218/196
f 168/196/176 167/194/174 182/217/195
f 180/211/191 179/209/189 194/220/198
f 180/211/191 195/221/199 196/226/202
f 174/216/194 173/213/192 188/223/200
f 181/215/193 196/226/202 197/228/204
f 175/218/196 174/216/194 189/227/203
f 183/219/197 182/217/195 197/228/204
f 175/218/196 190/229/205 191/231/207
f 183/219/197 198/230/206 199/232/208
f 177/205/185 176/203/183 191/231/207
f 185/206/186 184/204/184 199/232/208
f 177/205/185 192/233/209 193/235/211
f 185/206/186 200/234/210 201/236/212
f 179/209/189 178/207/187 193/235/211
f 186/208/188 201/236/212 202/225/201
f 198/230/206 213/253/227 214/237/213
f 192/233/209 191/231/207 206/238/214
f 200/234/210 199/232/208 214/237/213
f 192/233/209 207/239/215 208/241/217
f 200/234/210 215/240/216 216/242/218
f 194/220/198 193/235/211 208/241/217
f 201/236/212 216/242/218 217/244/220
f 195/221/199 194/220/198 209/243/219
f 195/221/199 210/245/221 211/249/223
f 188/223/200 203/247/222 204/250/224
f 196/226/202 211/249/223 212/251/225
f 189/227/203 204/250/224 205/252/226
f 198/230/206 197/228/204 212/251/225
f 190/229/205 205/252/226 206/238/214
f 210/245/221 225/270/242 226/258/230
f 203/247/222 218/255/228 219/259/231
f 211/249/223 226/258/230 227/260/232
f 204/250/224 219/259/231 220/261/233
f 213/253/227 212/251/225 227/260/232
f 205/252/226 220/261/233 221/263/235
f 213/253/227 228/262/234 229/264/236
f 207/239/215 206/238/214 221/263/235
f 215/240/216 214/237/213 229/264/236
f 207/239/215 222/265/237 223/267/239
f 215/240/216 230/266/238 231/268/240
f 209/243/219 208/241/217 223/267/239
f 216/242/218 231/268/240 232/257/229
f 210/245/221 209/243/219 224/269/241
f 222/265/237 221/263/235 236/271/243
f 230/266/238 229/264/236 244/273/245
f 222/265/237 237/272/244 238/275/247
f 230/266/238 245/274/246 246/276/248
f 224/269/241 223/267/239 238/275/247
f 232/257/229 231/268/240 246/276/248
f 225/270/242 224/269/241 239/277/249
f 225/270/242 240/279/251 241/283/253
f 218/255/228 233/281/252 234/284/254
f 226/258/230 241/283/253 242/285/255
f 220/261/233 219/259/231 234/284/254
f 228/262/234 227/260/232 242/285/255
f 220/261/233 235/286/256 236/271/243
f 228/262/234 243/287/257 244/273/245
f 240/279/251 255/301/271 256/288/258
f 233/281/252 248/303/272 249/289/259
f 241/283/253 256/288/258 257/290/260
f 234/284/254 249/289/259 250/291/261
f 243/287/257 242/285/255 257/290/260
f 235/286/256 250/291/261 251/293/263
f 243/287/257 258/292/262 259/294/264
f 237/272/244 236/271/243 251/293/263
f 245/274/246 244/273/245 259/294/264
f 237/272/244 252/295/265 253/297/267
f 245/274/246 260/296/266 261/298/268
f 239/277/249 238/275/247 253/297/267
f 246/276/248 261/298/268 262/300/270
f 240/279/251 239/277/249 254/299/269
f 260/296/266 259/294/264 274/305/273
f 252/295/265 267/321/287 268/307/275
f 260/296/266 275/306/274 276/308/276
f 254/299/269 253/297/267 268/307/275
f 261/298/268 276/308/276 277/310/278
f 255/301/271 254/299/269 269/309/277
f 255/301/271 270/311/279 271/315/281
f 249/289/259 248/303/272 263/313/280
f 256/288/258 271/315/281 272/317/283
f 249/289/259 264/316/282 265/318/284
f 258/292/262 257/290/260 272/317/283
f 250/291/261 265/318/284 266/320/286
f 258/292/262 273/319/285 274/305/273
f 252/295/265 251/293/263 266/320/286
f 271/315/281 286/337/301 287/322/288
f 264/316/282 279/338/302 280/323/289
f 273/319/285 272/317/283 287/322/288
f 265/318/284 280/323/289 281/325/291
f 273/319/285 288/324/290 289/326/292
f 267/321/287 266/320/286 281/325/291
f 275/306/274 274/305/273 289/326/292
f 267/321/287 282/327/293 283/329/295
f 275/306/274 290/328/294 291/330/296
f 269/309/277 268/307/275 283/329/295
f 277/310/278 276/308/276 291/330/296
f 270/311/279 269/309/277 284/331/297
f 270/311/279 285/333/299 286/337/301
f 264/316/282 263/313/280 278/335/300
f 290/328/294 305/355/317 306/339/303
f 284/331/297 283/329/295 298/340/304
f 292/332/298 291/330/296 306/339/303
f 285/333/299 284/331/297 299/341/305
f 285/333/299 300/343/307 301/347/309
f 278/335/300 293/345/308 294/348/310
f 286/337/301 301/347/309 302/349/311
f 279/338/302 294/348/310 295/350/312
f 288/324/290 287/322/288 302/349/311
f 280/323/289 295/350/312 296/352/314
f 288/324/290 303/351/313 304/353/315
f 282/327/293 281/325/291 296/352/314
f 290/328/294 289/326/292 304/353/315
f 282/327/293 297/354/316 298/340/304
f 294/348/310 310/372/332 311/356/318
f 303/351/313 302/349/311 318/357/319
f 295/350/312 311/356/318 312/359/321
f 303/351/313 319/358/320 320/360/322
f 297/354/316 296/352/314 312/359/321
f 305/355/317 304/353/315 320/360/322
f 297/354/316 313/361/323 314/363/325
f 305/355/317 321/362/324 322/364/326
f 299/341/305 298/340/304 314/363/325
f 306/339/303 322/364/326 323/366/328
f 300/343/307 299/341/305 315/365/327
f 300/343/307 316/367/329 317/371/331
f 293/345/308 309/369/330 310/372/332
f 301/347/309 317/371/331 318/357/319
f 315/365/327 314/363/325 329/373/333
f 322/364/326 337/389/347 338/375/335
f 316/367/329 315/365/327 330/374/334
f 316/367/329 331/376/336 332/380/338
f 309/369/330 324/378/337 325/381/339
f 317/371/331 332/380/338 333/382/340
f 310/372/332 325/381/339 326/383/341
f 319/358/320 318/357/319 333/382/340
f 311/356/318 326/383/341 327/385/343
f 319/358/320 334/384/342 335/386/344
f 312/359/321 327/385/343 328/387/345
f 321/362/324 320/360/322 335/386/344
f 313/361/323 328/387/345 329/373/333
f 321/362/324 336/388/346 337/389/347
f 334/384/342 333/382/340 348/390/348
f 326/383/341 341/406/362 342/392/350
f 334/384/342 349/391/349 350/393/351
f 328/387/345 327/385/343 342/392/350
f 336/388/346 335/386/344 350/393/351
f 328/387/345 343/394/352 344/396/354
f 336/388/346 351/395/353 352/397/355
f 330/374/334 329/373/333 344/396/354
f 337/389/347 352/397/355 353/399/357
f 331/376/336 330/374/334 345/398/356
f 331/376/336 346/400/358 347/404/360
f 324/378/337 339/402/359 340/405/361
f 332/380/338 347/404/360 348/390/348
f 325/381/339 340/405/361 341/406/362
f 352/397/355 367/423/377 368/407/363
f 346/400/358 345/398/356 360/408/364
f 346/400/358 361/409/365 362/413/367
f 339/402/359 354/411/366 355/414/368
f 347/404/360 362/413/367 363/415/369
f 341/406/362 340/405/361 355/414/368
f 349/391/349 348/390/348 363/415/369
f 341/406/362 356/416/370 357/418/372
f 349/391/349 364/417/371 365/419/373
f 343/394/352 342/392/350 357/418/372
f 351/395/353 350/393/351 365/419/373
f 343/394/352 358/420/374 359/422/376
f 351/395/353 366/421/375 367/423/377
f 345/398/356 344/396/354 359/422/376
f 356/424/370 371/454/391 372/425/378
f 364/427/371 379/455/392 380/428/379
f 358/430/374 357/426/372 372/425/378
f 366/432/375 365/429/373 380/428/379
f 358/430/374 373/431/380 374/434/382
f 366/432/375 381/433/381 382/436/383
f 360/438/364 359/435/376 374/434/382
f 367/437/377 382/436/383 383/440/385
f 361/442/365 360/438/364 375/439/384
f 361/442/365 376/443/386 377/448/388
f 354/444/366 369/446/387 370/450/389
f 362/449/367 377/448/388 378/452/390
f 356/424/370 355/451/368 370/450/389
f 364/427/371 363/453/369 378/452/390
f 376/443/386 375/439/384 390/456/393
f 376/443/386 391/457/394 392/462/397
f 369/446/387 384/459/395 385/463/398
f 377/448/388 392/462/397 393/464/399
f 371/454/391 370/450/389 385/463/398
f 379/455/392 378/452/390 393/464/399
f 371/454/391 386/465/400 387/467/402
f 379/455/392 394/466/401 395/468/403
f 373/431/380 372/425/378 387/467/402
f 381/433/381 380/428/379 395/468/403
f 373/431/380 388/469/404 389/471/406
f 381/433/381 396/470/405 397/472/407
f 375/439/384 374/434/382 389/471/406
f 382/436/383 397/472/407 398/461/396
f 394/466/401 409/489/422 410/473/408
f 388/469/404 387/467/402 402/474/409
f 396/470/405 395/468/403 410/473/408
f 388/469/404 403/475/410 404/477/412
f 397/472/407 396/470/405 411/476/411
f 390/456/393 389/471/406 404/477/412
f 397/472/407 412/478/413 413/480/415
f 391/457/394 390/456/393 405/479/414
f 391/457/394 406/481/416 407/485/418
f 385/463/398 384/459/395 399/483/417
f 392/462/397 407/485/418 408/487/420
f 385/463/398 400/486/419 401/488/421
f 394/466/401 393/464/399 408/487/420
f 386/465/400 401/488/421 402/474/409
f 406/481/416 421/504/436 422/492/424
f 399/483/417 414/506/437 415/493/425
f 407/485/418 422/492/424 423/494/426
f 401/488/421 400/486/419 415/493/425
f 409/489/422 408/487/420 423/494/426
f 401/488/421 416/495/427 417/497/429
f 409/489/422 424/496/428 425/498/430
f 403/475/410 402/474/409 417/497/429
f 411/476/411 410/473/408 425/498/430
f 403/475/410 418/499/431 419/501/433
f 411/476/411 426/500/432 427/502/434
f 405/479/414 404/477/412 419/501/433
f 412/478/413 427/502/434 428/491/423
f 406/481/416 405/479/414 420/503/435
f 426/500/432 425/498/430 440/507/438
f 418/499/431 433/523/452 434/509/440
f 426/500/432 441/508/439 442/510/441
f 420/503/435 419/501/433 434/509/440
f 427/502/434 442/510/441 443/512/443
f 421/504/436 420/503/435 435/511/442
f 421/504/436 436/513/444 437/517/446
f 414/506/437 429/515/445 430/518/447
f 422/492/424 437/517/446 438/519/448
f 416/495/427 415/493/425 430/518/447
f 424/496/428 423/494/426 438/519/448
f 416/495/427 431/520/449 432/522/451
f 424/496/428 439/521/450 440/507/438
f 418/499/431 417/497/429 432/522/451
f 430/518/447 429/515/445 444/524/453
f 437/517/446 452/540/467 453/526/455
f 430/518/447 445/525/454 446/527/456
f 439/521/450 438/519/448 453/526/455
f 431/520/449 446/527/456 447/529/458
f 439/521/450 454/528/457 455/530/459
f 433/523/452 432/522/451 447/529/458
f 441/508/439 440/507/438 455/530/459
f 433/523/452 448/531/460 449/533/462
f 441/508/439 456/532/461 457/534/463
f 435/511/442 434/509/440 449/533/462
f 442/510/441 457/534/463 458/536/465
f 436/513/444 435/511/442 450/535/464
f 436/513/444 451/537/466 452/540/467
f 448/531/460 463/556/481 464/541/468
f 456/532/461 471/557/482 472/542/469
f 450/535/464 449/533/462 464/541/468
f 458/536/465 457/534/463 472/542/469
f 451/537/466 450/535/464 465/543/470
f 451/537/466 466/545/472 467/549/474
f 444/524/453 459/547/473 460/550/475
f 452/540/467 467/549/474 468/551/476
f 446/527/456 445/525/454 460/550/475
f 454/528/457 453/526/455 468/551/476
f 446/527/456 461/552/477 462/554/479
f 454/528/457 469/553/478 470/555/480
f 448/531/460 447/529/458 462/554/479
f 456/532/461 455/530/459 470/555/480
f 467/549/474 5/4/4 478/6/6
f 461/552/477 460/550/475 475/1/1
f 468/551/476 478/6/6 6/10/10
f 462/554/479 461/552/477 1/7/7
f 469/553/478 6/10/10 479/14/14
f 463/556/481 462/554/479 476/11/11
f 471/557/482 470/555/480 479/14/14
f 464/541/468 463/556/481 2/15/15
f 471/557/482 480/18/18 481/22/22
f 465/543/470 464/541/468 477/19/19
f 472/542/469 481/22/22 482/26/26
f 466/545/472 465/543/470 3/23/23
f 466/545/472 4/28/28 5/4/4
f 460/550/475 459/547/473 474/29/29
